<?xml version="1.0" encoding="UTF-8"?>
<svg version="1.1" xmlns="http://www.w3.org/2000/svg" width="180" height="180">
<path d="M0 0 C2.24095594 -0.00958083 4.48094409 -0.0405384 6.72167969 -0.07226562 C15.3786929 -0.13439557 23.07928708 0.5741862 31.40917969 3.24023438 C31.40917969 3.90023438 31.40917969 4.56023438 31.40917969 5.24023438 C32.116875 5.35238281 32.82457031 5.46453125 33.55371094 5.58007812 C43.20021025 7.81025375 51.04117219 13.93209624 58.40917969 20.24023438 C59.240625 20.87703125 60.07207031 21.51382812 60.92871094 22.16992188 C63.5285044 24.33982823 65.54764885 26.5967912 67.65917969 29.24023438 C68.34496094 30.08585937 69.03074219 30.93148437 69.73730469 31.80273438 C71.28578974 34.06033875 71.9887859 35.56949736 72.40917969 38.24023438 C73.06917969 38.24023438 73.72917969 38.24023438 74.40917969 38.24023438 C75.25242641 39.81831038 76.08341887 41.40293858 76.90917969 42.99023438 C77.37324219 43.87195312 77.83730469 44.75367188 78.31542969 45.66210938 C79.40917969 48.24023438 79.40917969 48.24023438 79.40917969 52.24023438 C80.06917969 52.24023438 80.72917969 52.24023438 81.40917969 52.24023438 C81.40917969 53.89023437 81.40917969 55.54023437 81.40917969 57.24023438 C82.06917969 57.24023438 82.72917969 57.24023438 83.40917969 57.24023438 C83.54195312 58.08328125 83.67472656 58.92632812 83.81152344 59.79492188 C84.07642578 61.43847656 84.07642578 61.43847656 84.34667969 63.11523438 C84.52070313 64.20578125 84.69472656 65.29632813 84.87402344 66.41992188 C85.26469128 69.17844983 85.26469128 69.17844983 86.40917969 71.24023438 C87.4146077 83.77304687 86.58810455 96.09220009 83.40917969 108.24023438 C82.74917969 108.24023438 82.08917969 108.24023438 81.40917969 108.24023438 C81.47105469 108.93890625 81.53292969 109.63757813 81.59667969 110.35742188 C80.97878741 119.8575157 72.0554418 129.97576518 66.40917969 137.24023438 C65.77109375 138.07941406 65.13300781 138.91859375 64.47558594 139.78320312 C57.17914504 148.45893342 47.27884044 153.99737 37.40917969 159.24023438 C36.67054687 159.64113281 35.93191406 160.04203125 35.17089844 160.45507812 C32.85608609 161.48673507 30.91183245 161.37927064 28.40917969 161.24023438 C28.40917969 161.90023437 28.40917969 162.56023437 28.40917969 163.24023438 C11.3923088 167.63168493 -5.57394942 167.63168493 -22.59082031 163.24023438 C-22.59082031 162.58023438 -22.59082031 161.92023438 -22.59082031 161.24023438 C-24.24082031 161.24023438 -25.89082031 161.24023438 -27.59082031 161.24023438 C-27.59082031 160.58023438 -27.59082031 159.92023438 -27.59082031 159.24023438 C-28.41582031 159.15773437 -29.24082031 159.07523438 -30.09082031 158.99023438 C-34.35835952 158.07576169 -37.78318925 156.31800259 -41.59082031 154.24023438 C-41.59082031 153.58023438 -41.59082031 152.92023438 -41.59082031 152.24023438 C-42.25082031 152.05460938 -42.91082031 151.86898437 -43.59082031 151.67773438 C-47.94092051 149.59331137 -51.0874812 146.51566109 -54.59082031 143.24023438 C-55.24308594 142.66402344 -55.89535156 142.0878125 -56.56738281 141.49414062 C-65.48499929 133.23379867 -72.49727246 121.66930045 -76.59082031 110.24023438 C-76.85048584 109.51868164 -77.11015137 108.79712891 -77.37768555 108.05371094 C-79.86318629 100.26164776 -80.01940861 92.67465975 -79.92700195 84.5859375 C-79.90313597 82.34794786 -79.90649759 80.11113395 -79.91308594 77.87304688 C-79.86772839 66.16754288 -79.86772839 66.16754288 -77.59082031 61.24023438 C-77.30207031 60.18835938 -77.01332031 59.13648438 -76.71582031 58.05273438 C-70.36908654 36.54435882 -55.47464731 19.56196541 -36.15722656 8.45507812 C-33.59082031 7.24023438 -33.59082031 7.24023438 -30.59082031 7.24023438 C-30.59082031 6.58023437 -30.59082031 5.92023437 -30.59082031 5.24023438 C-29.53121094 4.96308594 -28.47160156 4.6859375 -27.37988281 4.40039062 C-25.99183162 4.03462038 -24.60381245 3.66872865 -23.21582031 3.30273438 C-22.51714844 3.12033203 -21.81847656 2.93792969 -21.09863281 2.75 C-13.73714885 0.80345376 -7.68738629 0.01983842 0 0 Z " fill="#231E20" transform="translate(86.5908203125,6.759765625)"/>
<path d="M0 0 C13.13817424 1.88360921 25.68366069 14.78276182 33.5390625 24.73828125 C34.93096656 26.89312737 35.57525225 28.49169235 36 31 C36.66 31 37.32 31 38 31 C38.84324672 32.578076 39.67423918 34.1627042 40.5 35.75 C41.19609375 37.07257812 41.19609375 37.07257812 41.90625 38.421875 C43 41 43 41 43 45 C43.66 45 44.32 45 45 45 C45 46.65 45 48.3 45 50 C45.66 50 46.32 50 47 50 C47.13277344 50.84304687 47.26554687 51.68609375 47.40234375 52.5546875 C47.66724609 54.19824219 47.66724609 54.19824219 47.9375 55.875 C48.19853516 57.51082031 48.19853516 57.51082031 48.46484375 59.1796875 C48.85551159 61.93821546 48.85551159 61.93821546 50 64 C51.00542801 76.53281249 50.17892486 88.85196571 47 101 C46.34 101 45.68 101 45 101 C45.061875 101.69867188 45.12375 102.39734375 45.1875 103.1171875 C44.59028943 112.2993 35.80491137 123.18207468 30 130 C28.36721192 131.37461218 26.70820883 132.72032107 25 134 C24 133 24 133 23.88647461 131.05053711 C23.89432983 129.8015564 23.89432983 129.8015564 23.90234375 128.52734375 C23.90484131 127.71773193 23.90733887 126.90812012 23.90991211 126.07397461 C23.91901611 125.03893799 23.92812012 124.00390137 23.9375 122.9375 C23.958125 119.658125 23.97875 116.37875 24 113 C13.11 113 2.22 113 -9 113 C-9 111.35 -9 109.7 -9 108 C-20.22 108 -31.44 108 -43 108 C-43 105.03 -43 102.06 -43 99 C-44.175625 99.020625 -45.35125 99.04125 -46.5625 99.0625 C-50.47413467 99.06947261 -54.14497944 98.64250343 -58 98 C-58 93.71 -58 89.42 -58 85 C-56.35 85 -54.7 85 -53 85 C-53 83.02 -53 81.04 -53 79 C-48.38 79 -43.76 79 -39 79 C-39 77.68 -39 76.36 -39 75 C-46.92 75 -54.84 75 -63 75 C-63 77.97 -63 80.94 -63 84 C-64.32 84 -65.64 84 -67 84 C-67 77.73 -67 71.46 -67 65 C-64.03 65 -61.06 65 -58 65 C-58 63.35 -58 61.7 -58 60 C-56.35 60 -54.7 60 -53 60 C-53 61.65 -53 63.3 -53 65 C-51.35 65 -49.7 65 -48 65 C-48 63.35 -48 61.7 -48 60 C-43.05 60 -38.1 60 -33 60 C-33 58.68 -33 57.36 -33 56 C-28.38 56 -23.76 56 -19 56 C-19 57.32 -19 58.64 -19 60 C-14.38 60 -9.76 60 -5 60 C-5 61.65 -5 63.3 -5 65 C-3.35 65 -1.7 65 0 65 C0 63.35 0 61.7 0 60 C-1.32 60 -2.64 60 -4 60 C-4 58.35 -4 56.7 -4 55 C-8.95 55 -13.9 55 -19 55 C-19 53.68 -19 52.36 -19 51 C-17.35 51 -15.7 51 -14 51 C-14 49.35 -14 47.7 -14 46 C-12.35 46 -10.7 46 -9 46 C-9 44.35 -9 42.7 -9 41 C-7.68 41 -6.36 41 -5 41 C-5 42.65 -5 44.3 -5 46 C-3.35 46 -1.7 46 0 46 C0 48.97 0 51.94 0 55 C1.65 55 3.3 55 5 55 C5 59.95 5 64.9 5 70 C9.62 70 14.24 70 19 70 C19 60.43 19 50.86 19 41 C17.68 41 16.36 41 15 41 C15 37.7 15 34.4 15 31 C13.35 31 11.7 31 10 31 C10 29.35 10 27.7 10 26 C8.35 26 6.7 26 5 26 C5 24.68 5 23.36 5 22 C3.35 22 1.7 22 0 22 C0 17.05 0 12.1 0 7 C-1.32 7 -2.64 7 -4 7 C-4 5.35 -4 3.7 -4 2 C-2.68 2 -1.36 2 0 2 C0 1.34 0 0.68 0 0 Z " fill="#616281" transform="translate(123,14)"/>
<path d="M0 0 C2.24095594 -0.00958083 4.48094409 -0.0405384 6.72167969 -0.07226562 C15.3786929 -0.13439557 23.07928708 0.5741862 31.40917969 3.24023438 C31.40917969 3.90023438 31.40917969 4.56023438 31.40917969 5.24023438 C33.05917969 5.57023438 34.70917969 5.90023438 36.40917969 6.24023438 C36.40917969 7.23023438 36.40917969 8.22023438 36.40917969 9.24023438 C35.08917969 9.24023438 33.76917969 9.24023438 32.40917969 9.24023438 C32.40917969 10.89023437 32.40917969 12.54023438 32.40917969 14.24023438 C33.72917969 14.24023438 35.04917969 14.24023438 36.40917969 14.24023438 C36.40917969 19.19023437 36.40917969 24.14023437 36.40917969 29.24023438 C38.05917969 29.24023438 39.70917969 29.24023438 41.40917969 29.24023438 C41.40917969 30.56023438 41.40917969 31.88023438 41.40917969 33.24023438 C43.05917969 33.24023438 44.70917969 33.24023438 46.40917969 33.24023438 C46.40917969 34.89023437 46.40917969 36.54023437 46.40917969 38.24023438 C48.05917969 38.24023438 49.70917969 38.24023438 51.40917969 38.24023438 C51.40917969 41.54023437 51.40917969 44.84023438 51.40917969 48.24023438 C52.72917969 48.24023438 54.04917969 48.24023438 55.40917969 48.24023438 C55.40917969 57.81023437 55.40917969 67.38023438 55.40917969 77.24023438 C50.78917969 77.24023438 46.16917969 77.24023438 41.40917969 77.24023438 C41.40917969 72.29023437 41.40917969 67.34023437 41.40917969 62.24023438 C39.75917969 62.24023438 38.10917969 62.24023438 36.40917969 62.24023438 C36.40917969 59.27023438 36.40917969 56.30023438 36.40917969 53.24023438 C34.75917969 53.24023438 33.10917969 53.24023438 31.40917969 53.24023438 C31.40917969 51.59023438 31.40917969 49.94023438 31.40917969 48.24023438 C30.08917969 48.24023438 28.76917969 48.24023438 27.40917969 48.24023438 C27.40917969 49.89023437 27.40917969 51.54023437 27.40917969 53.24023438 C25.75917969 53.24023438 24.10917969 53.24023438 22.40917969 53.24023438 C22.40917969 54.89023437 22.40917969 56.54023437 22.40917969 58.24023438 C20.75917969 58.24023438 19.10917969 58.24023438 17.40917969 58.24023438 C17.40917969 59.56023437 17.40917969 60.88023438 17.40917969 62.24023438 C22.35917969 62.24023438 27.30917969 62.24023438 32.40917969 62.24023438 C32.40917969 63.89023438 32.40917969 65.54023437 32.40917969 67.24023438 C33.72917969 67.24023438 35.04917969 67.24023438 36.40917969 67.24023438 C36.40917969 68.89023438 36.40917969 70.54023437 36.40917969 72.24023438 C34.75917969 72.24023438 33.10917969 72.24023438 31.40917969 72.24023438 C31.40917969 70.59023437 31.40917969 68.94023438 31.40917969 67.24023438 C26.78917969 67.24023438 22.16917969 67.24023438 17.40917969 67.24023438 C17.40917969 65.92023438 17.40917969 64.60023437 17.40917969 63.24023438 C12.78917969 63.24023438 8.16917969 63.24023438 3.40917969 63.24023438 C3.40917969 64.56023437 3.40917969 65.88023438 3.40917969 67.24023438 C-1.54082031 67.24023438 -6.49082031 67.24023438 -11.59082031 67.24023438 C-11.59082031 68.89023438 -11.59082031 70.54023437 -11.59082031 72.24023438 C-13.24082031 72.24023438 -14.89082031 72.24023438 -16.59082031 72.24023438 C-16.59082031 70.59023437 -16.59082031 68.94023438 -16.59082031 67.24023438 C-18.24082031 67.24023438 -19.89082031 67.24023438 -21.59082031 67.24023438 C-21.59082031 68.89023438 -21.59082031 70.54023437 -21.59082031 72.24023438 C-24.56082031 72.24023438 -27.53082031 72.24023438 -30.59082031 72.24023438 C-30.59082031 73.89023438 -30.59082031 75.54023437 -30.59082031 77.24023438 C-35.54082031 77.24023438 -40.49082031 77.24023438 -45.59082031 77.24023438 C-45.59082031 81.86023438 -45.59082031 86.48023437 -45.59082031 91.24023438 C-47.24082031 91.24023438 -48.89082031 91.24023438 -50.59082031 91.24023438 C-50.69548679 83.16928615 -50.62469543 75.25276657 -49.59082031 67.24023438 C-48.27082031 67.24023438 -46.95082031 67.24023438 -45.59082031 67.24023438 C-45.59082031 65.59023437 -45.59082031 63.94023438 -45.59082031 62.24023438 C-47.24082031 62.24023438 -48.89082031 62.24023438 -50.59082031 62.24023438 C-50.59082031 63.89023438 -50.59082031 65.54023437 -50.59082031 67.24023438 C-51.91082031 67.24023438 -53.23082031 67.24023438 -54.59082031 67.24023438 C-54.59082031 65.59023437 -54.59082031 63.94023438 -54.59082031 62.24023438 C-56.24082031 62.24023438 -57.89082031 62.24023438 -59.59082031 62.24023438 C-59.59082031 63.89023438 -59.59082031 65.54023437 -59.59082031 67.24023438 C-61.24082031 67.24023438 -62.89082031 67.24023438 -64.59082031 67.24023438 C-64.59082031 65.59023437 -64.59082031 63.94023438 -64.59082031 62.24023438 C-65.91082031 62.24023438 -67.23082031 62.24023438 -68.59082031 62.24023438 C-68.59082031 60.92023438 -68.59082031 59.60023437 -68.59082031 58.24023438 C-67.27082031 58.24023438 -65.95082031 58.24023438 -64.59082031 58.24023438 C-64.59082031 56.59023438 -64.59082031 54.94023438 -64.59082031 53.24023438 C-66.24082031 53.24023438 -67.89082031 53.24023438 -69.59082031 53.24023438 C-69.59082031 51.59023438 -69.59082031 49.94023438 -69.59082031 48.24023438 C-67.94082031 48.24023438 -66.29082031 48.24023438 -64.59082031 48.24023438 C-64.59082031 46.59023438 -64.59082031 44.94023438 -64.59082031 43.24023438 C-66.24082031 43.24023438 -67.89082031 43.24023438 -69.59082031 43.24023438 C-69.59082031 43.90023437 -69.59082031 44.56023438 -69.59082031 45.24023438 C-70.25082031 44.91023438 -70.91082031 44.58023438 -71.59082031 44.24023438 C-62.44112183 28.76518164 -50.06454942 15.03830097 -33.59082031 7.24023438 C-32.60082031 7.24023438 -31.61082031 7.24023438 -30.59082031 7.24023438 C-30.59082031 6.58023437 -30.59082031 5.92023437 -30.59082031 5.24023438 C-29.53121094 4.96308594 -28.47160156 4.6859375 -27.37988281 4.40039062 C-25.99183162 4.03462038 -24.60381245 3.66872865 -23.21582031 3.30273438 C-22.51714844 3.12033203 -21.81847656 2.93792969 -21.09863281 2.75 C-13.73714885 0.80345376 -7.68738629 0.01983842 0 0 Z " fill="#0B336A" transform="translate(86.5908203125,6.759765625)"/>
<path d="M0 0 C3.3 0 6.6 0 10 0 C10 1.65 10 3.3 10 5 C20.89 5 31.78 5 43 5 C43.4375 14.875 43.4375 14.875 43.56811523 17.98388672 C43.60622314 18.79100098 43.64433105 19.59811523 43.68359375 20.4296875 C43.72025146 21.25710449 43.75690918 22.08452148 43.79467773 22.93701172 C43.88238327 25.06179429 43.88238327 25.06179429 45 27 C37.15607941 33.91545652 29.21228048 39.10634272 20 44 C19.26136719 44.40089844 18.52273437 44.80179688 17.76171875 45.21484375 C15.44690641 46.24650069 13.50265276 46.13903626 11 46 C11 46.66 11 47.32 11 48 C-6.01687089 52.39145055 -22.98312911 52.39145055 -40 48 C-40 47.34 -40 46.68 -40 46 C-41.65 46 -43.3 46 -45 46 C-44.67 45.01 -44.34 44.02 -44 43 C-42.35 43 -40.7 43 -39 43 C-39 36.73 -39 30.46 -39 24 C-37.02 24 -35.04 24 -33 24 C-33 22.68 -33 21.36 -33 20 C-31.68 20 -30.36 20 -29 20 C-29 22.97 -29 25.94 -29 29 C-30.32 29 -31.64 29 -33 29 C-33 33.62 -33 38.24 -33 43 C-30.03 43.33 -27.06 43.66 -24 44 C-24 31.13 -24 18.26 -24 5 C-22.68 5 -21.36 5 -20 5 C-20 6.65 -20 8.3 -20 10 C-15.05 10 -10.1 10 -5 10 C-5 8.35 -5 6.7 -5 5 C-3.35 5 -1.7 5 0 5 C0 3.35 0 1.7 0 0 Z " fill="#0A0303" transform="translate(104,122)"/>
<path d="M0 0 C1.32 0 2.64 0 4 0 C4 1.65 4 3.3 4 5 C5.65 5 7.3 5 9 5 C9 7.97 9 10.94 9 14 C10.65 14 12.3 14 14 14 C14 26.87 14 39.74 14 53 C10.7 53 7.4 53 4 53 C4 54.32 4 55.64 4 57 C2.02 57.495 2.02 57.495 0 58 C-0.33 59.32 -0.66 60.64 -1 62 C-3.97 62 -6.94 62 -10 62 C-10 63.65 -10 65.3 -10 67 C-17.92 67 -25.84 67 -34 67 C-34 64.03 -34 61.06 -34 58 C-35.7634375 58.0309375 -35.7634375 58.0309375 -37.5625 58.0625 C-41.47413467 58.06947261 -45.14497944 57.64250343 -49 57 C-49 52.71 -49 48.42 -49 44 C-47.35 44 -45.7 44 -44 44 C-44 42.02 -44 40.04 -44 38 C-39.38 38 -34.76 38 -30 38 C-30 36.68 -30 35.36 -30 34 C-37.92 34 -45.84 34 -54 34 C-54 36.97 -54 39.94 -54 43 C-55.32 43 -56.64 43 -58 43 C-58 36.73 -58 30.46 -58 24 C-55.03 24 -52.06 24 -49 24 C-49 22.35 -49 20.7 -49 19 C-47.35 19 -45.7 19 -44 19 C-44 20.65 -44 22.3 -44 24 C-42.35 24 -40.7 24 -39 24 C-39 22.35 -39 20.7 -39 19 C-34.05 19 -29.1 19 -24 19 C-24 17.68 -24 16.36 -24 15 C-19.38 15 -14.76 15 -10 15 C-10 16.32 -10 17.64 -10 19 C-5.38 19 -0.76 19 4 19 C4 20.65 4 22.3 4 24 C5.65 24 7.3 24 9 24 C9 22.35 9 20.7 9 19 C7.68 19 6.36 19 5 19 C5 17.35 5 15.7 5 14 C0.05 14 -4.9 14 -10 14 C-10 12.68 -10 11.36 -10 10 C-8.35 10 -6.7 10 -5 10 C-5 8.35 -5 6.7 -5 5 C-3.35 5 -1.7 5 0 5 C0 3.35 0 1.7 0 0 Z " fill="#EBB490" transform="translate(114,55)"/>
<path d="M0 0 C11.22 0 22.44 0 34 0 C34 1.65 34 3.3 34 5 C35.65 5 37.3 5 39 5 C39 6.65 39 8.3 39 10 C43.62 10 48.24 10 53 10 C53 11.32 53 12.64 53 14 C54.65 14 56.3 14 58 14 C58 15.65 58 17.3 58 19 C59.32 19 60.64 19 62 19 C63.32286246 23.96073422 63.08893197 28.91111512 63 34 C61.35 34 59.7 34 58 34 C58 32.02 58 30.04 58 28 C56.68 28 55.36 28 54 28 C54 26.68 54 25.36 54 24 C52.35 24 50.7 24 49 24 C49 22.35 49 20.7 49 19 C47.35 19 45.7 19 44 19 C44 17.35 44 15.7 44 14 C42.35 14 40.7 14 39 14 C38.67 16.97 38.34 19.94 38 23 C35.03 23.33 32.06 23.66 29 24 C29 26.97 29 29.94 29 33 C25.7 33 22.4 33 19 33 C19 34.65 19 36.3 19 38 C14.38 38 9.76 38 5 38 C5 36.68 5 35.36 5 34 C8.3 34 11.6 34 15 34 C15 32.35 15 30.7 15 29 C11.7 29 8.4 29 5 29 C5 30.32 5 31.64 5 33 C1.7 33 -1.6 33 -5 33 C-5 34.65 -5 36.3 -5 38 C-6.32 38 -7.64 38 -9 38 C-9 39.65 -9 41.3 -9 43 C-7.68 43 -6.36 43 -5 43 C-5 44.65 -5 46.3 -5 48 C-6.65 48 -8.3 48 -10 48 C-10 46.35 -10 44.7 -10 43 C-11.32 43 -12.64 43 -14 43 C-14 40.03 -14 37.06 -14 34 C-12.35 34 -10.7 34 -9 34 C-9 30.7 -9 27.4 -9 24 C-7.35 24 -5.7 24 -4 24 C-4 22.35 -4 20.7 -4 19 C-1.03 19 1.94 19 5 19 C5 17.35 5 15.7 5 14 C1.7 14 -1.6 14 -5 14 C-5 15.65 -5 17.3 -5 19 C-6.65 19 -8.3 19 -10 19 C-10 20.32 -10 21.64 -10 23 C-11.32 23 -12.64 23 -14 23 C-14 18.71 -14 14.42 -14 10 C-12.35 10 -10.7 10 -9 10 C-9 8.35 -9 6.7 -9 5 C-6.03 5 -3.06 5 0 5 C0 3.35 0 1.7 0 0 Z " fill="#585858" transform="translate(70,31)"/>
<path d="M0 0 C2.97 0 5.94 0 9 0 C9 1.65 9 3.3 9 5 C10.65 5 12.3 5 14 5 C14 9.95 14 14.9 14 20 C15.65 20 17.3 20 19 20 C19 21.32 19 22.64 19 24 C20.65 24 22.3 24 24 24 C24 25.65 24 27.3 24 29 C25.65 29 27.3 29 29 29 C29 32.3 29 35.6 29 39 C30.32 39 31.64 39 33 39 C33 48.57 33 58.14 33 68 C28.38 68 23.76 68 19 68 C19 63.05 19 58.1 19 53 C17.35 53 15.7 53 14 53 C14 50.03 14 47.06 14 44 C12.35 44 10.7 44 9 44 C9 42.35 9 40.7 9 39 C7.68 39 6.36 39 5 39 C5 40.65 5 42.3 5 44 C3.35 44 1.7 44 0 44 C0 45.65 0 47.3 0 49 C-1.65 49 -3.3 49 -5 49 C-5 50.32 -5 51.64 -5 53 C-0.05 53 4.9 53 10 53 C10 54.65 10 56.3 10 58 C11.32 58 12.64 58 14 58 C14 59.65 14 61.3 14 63 C12.35 63 10.7 63 9 63 C9 61.35 9 59.7 9 58 C4.38 58 -0.24 58 -5 58 C-5 56.68 -5 55.36 -5 54 C-9.62 54 -14.24 54 -19 54 C-19 55.32 -19 56.64 -19 58 C-23.95 58 -28.9 58 -34 58 C-34 59.65 -34 61.3 -34 63 C-35.65 63 -37.3 63 -39 63 C-39 61.35 -39 59.7 -39 58 C-41.97 58 -44.94 58 -48 58 C-48 56.35 -48 54.7 -48 53 C-46.68 53 -45.36 53 -44 53 C-44 51.35 -44 49.7 -44 48 C-40.7 48 -37.4 48 -34 48 C-34 46.68 -34 45.36 -34 44 C-30.7 44 -27.4 44 -24 44 C-24 45.65 -24 47.3 -24 49 C-27.3 49 -30.6 49 -34 49 C-34 50.32 -34 51.64 -34 53 C-29.38 53 -24.76 53 -20 53 C-20 51.35 -20 49.7 -20 48 C-16.7 48 -13.4 48 -10 48 C-10 45.03 -10 42.06 -10 39 C-5.545 38.505 -5.545 38.505 -1 38 C-0.67 35.03 -0.34 32.06 0 29 C1.65 29 3.3 29 5 29 C5 30.65 5 32.3 5 34 C6.65 34 8.3 34 10 34 C10 35.65 10 37.3 10 39 C11.65 39 13.3 39 15 39 C15 40.32 15 41.64 15 43 C16.32 43 17.64 43 19 43 C19 44.98 19 46.96 19 49 C20.65 49 22.3 49 24 49 C23.505 41.575 23.505 41.575 23 34 C21.68 34 20.36 34 19 34 C19 32.35 19 30.7 19 29 C17.35 29 15.7 29 14 29 C14 27.68 14 26.36 14 25 C9.38 25 4.76 25 0 25 C0 23.35 0 21.7 0 20 C-1.65 20 -3.3 20 -5 20 C-5 18.35 -5 16.7 -5 15 C-16.22 15 -27.44 15 -39 15 C-39 13.35 -39 11.7 -39 10 C-26.13 10 -13.26 10 0 10 C0 11.65 0 13.3 0 15 C1.65 15 3.3 15 5 15 C5 11.7 5 8.4 5 5 C3.35 5 1.7 5 0 5 C0 3.35 0 1.7 0 0 Z " fill="#252220" transform="translate(109,16)"/>
<path d="M0 0 C0 1.32 0 2.64 0 4 C0.66 4 1.32 4 2 4 C2 5.65 2 7.3 2 9 C2.66 9 3.32 9 4 9 C4.19916016 10.26457031 4.19916016 10.26457031 4.40234375 11.5546875 C4.57894531 12.65039062 4.75554687 13.74609375 4.9375 14.875 C5.11152344 15.96554688 5.28554687 17.05609375 5.46484375 18.1796875 C5.85551159 20.93821546 5.85551159 20.93821546 7 23 C8.00542801 35.53281249 7.17892486 47.85196571 4 60 C3.34 60 2.68 60 2 60 C2.09474609 61.04607422 2.09474609 61.04607422 2.19140625 62.11328125 C1.60980216 70.88482042 -6.37127839 81.42078187 -12 88 C-12.66 88 -13.32 88 -14 88 C-14 58.96 -14 29.92 -14 0 C-2 -1 -2 -1 0 0 Z " fill="#19181B" transform="translate(166,55)"/>
<path d="M0 0 C0.66 0.33 1.32 0.66 2 1 C2 4.96 2 8.92 2 13 C3.32 13 4.64 13 6 13 C6 14.65 6 16.3 6 18 C10.95 18 15.9 18 21 18 C21 40.77 21 63.54 21 87 C9.06450957 81.03225479 2.55625088 65.7879343 -1.81616211 53.75366211 C-4.24909031 45.96660287 -4.42839072 38.41713082 -4.33618164 30.34570312 C-4.31231566 28.10771348 -4.31567727 25.87089957 -4.32226562 23.6328125 C-4.2769525 11.93877182 -4.2769525 11.93877182 -2 7 C-1.31320058 4.67251306 -0.64238957 2.34013344 0 0 Z " fill="#18181C" transform="translate(11,61)"/>
<path d="M0 0 C0 1.65 0 3.3 0 5 C1.32 5 2.64 5 4 5 C4 3.35 4 1.7 4 0 C5.32 0 6.64 0 8 0 C8 1.65 8 3.3 8 5 C11.63 5 15.26 5 19 5 C19 3.68 19 2.36 19 1 C23.62 1 28.24 1 33 1 C33 5.62 33 10.24 33 15 C31.35 15 29.7 15 28 15 C28 16.32 28 17.64 28 19 C26.68 19.33 25.36 19.66 24 20 C23.67 21.32 23.34 22.64 23 24 C20.03 24 17.06 24 14 24 C14 25.65 14 27.3 14 29 C6.08 29 -1.84 29 -10 29 C-10 26.03 -10 23.06 -10 20 C-11.7634375 20.0309375 -11.7634375 20.0309375 -13.5625 20.0625 C-17.47413467 20.06947261 -21.14497944 19.64250343 -25 19 C-25 14.71 -25 10.42 -25 6 C-23.35 5.67 -21.7 5.34 -20 5 C-19.67 3.68 -19.34 2.36 -19 1 C-16.77100213 0.83109082 -14.54179338 0.66496313 -12.3125 0.5 C-10.45044922 0.36078125 -10.45044922 0.36078125 -8.55078125 0.21875 C-5.68500671 0.04220063 -2.86900043 -0.04388528 0 0 Z " fill="#F9D2AC" transform="translate(90,93)"/>
<path d="M0 0 C1.65 0 3.3 0 5 0 C5 1.65 5 3.3 5 5 C3.35 5 1.7 5 0 5 C0 6.65 0 8.3 0 10 C1.65 10 3.3 10 5 10 C5 11.65 5 13.3 5 15 C3.68 15 2.36 15 1 15 C1 16.32 1 17.64 1 19 C2.32 19 3.64 19 5 19 C5 20.65 5 22.3 5 24 C6.65 24 8.3 24 10 24 C10 22.35 10 20.7 10 19 C11.65 19 13.3 19 15 19 C15 20.65 15 22.3 15 24 C16.32 24 17.64 24 19 24 C19 22.35 19 20.7 19 19 C20.65 19 22.3 19 24 19 C24 20.65 24 22.3 24 24 C22.68 24 21.36 24 20 24 C20.01160156 25.31355469 20.02320312 26.62710938 20.03515625 27.98046875 C20.04453828 29.71614441 20.05363804 31.45182161 20.0625 33.1875 C20.07087891 34.05181641 20.07925781 34.91613281 20.08789062 35.80664062 C20.10396812 40.00286769 20.07559038 43.90936886 19 48 C22.3 48 25.6 48 29 48 C29 49.65 29 51.3 29 53 C30.65 53 32.3 53 34 53 C34 54.65 34 56.3 34 58 C35.32 58 36.64 58 38 58 C38 59.65 38 61.3 38 63 C39.65 63 41.3 63 43 63 C42.98839844 63.63808594 42.97679687 64.27617188 42.96484375 64.93359375 C42.95582031 65.75988281 42.94679687 66.58617188 42.9375 67.4375 C42.92589844 68.26121094 42.91429687 69.08492188 42.90234375 69.93359375 C42.76732652 71.99163938 42.76732652 71.99163938 44 73 C44 71.02 44 69.04 44 67 C45.32 67 46.64 67 48 67 C48 70.3 48 73.6 48 77 C38.76 77 29.52 77 20 77 C20.33 86.24 20.66 95.48 21 105 C14 99 14 99 13.19618225 95.6210022 C13.22949142 94.39078339 13.2628006 93.16056458 13.29711914 91.89306641 C13.30585052 91.20944031 13.31458191 90.52581421 13.32357788 89.82147217 C13.36051473 87.57935635 13.44742267 85.34221596 13.53515625 83.1015625 C13.57067994 81.54078807 13.60305874 79.97993917 13.63243103 78.41903687 C13.71789463 74.32429794 13.84588107 70.23196629 13.98291016 66.13867188 C14.11533424 61.95634563 14.20730497 57.77314865 14.30273438 53.58984375 C14.49568906 45.39175005 14.73733104 37.19615654 15 29 C10.05 29 5.1 29 0 29 C0 27.35 0 25.7 0 24 C-1.32 24 -2.64 24 -4 24 C-4.24970296 21.27131829 -4.47531211 18.54413986 -4.6875 15.8125 C-4.76033203 15.04357422 -4.83316406 14.27464844 -4.90820312 13.48242188 C-5.25073351 8.78774073 -5.19351677 5.78518971 -2 2 C-1.34 2 -0.68 2 0 2 C0 1.34 0 0.68 0 0 Z " fill="#5F6180" transform="translate(17,50)"/>
<path d="M0 0 C2.97 0 5.94 0 9 0 C9 1.32 9 2.64 9 4 C7.68 4 6.36 4 5 4 C5 5.65 5 7.3 5 9 C1.7 9 -1.6 9 -5 9 C-5 12.3 -5 15.6 -5 19 C-6.32 19 -7.64 19 -9 19 C-9 21.97 -9 24.94 -9 28 C-10.65 28 -12.3 28 -14 28 C-14 32.95 -14 37.9 -14 43 C-17.63 41.35 -21.26 39.7 -25 38 C-25 37.34 -25 36.68 -25 36 C-25.78375 35.690625 -26.5675 35.38125 -27.375 35.0625 C-30 34 -30 34 -32 33 C-33.07917226 29.76248322 -33.11425601 27.42248229 -33.09765625 24.01953125 C-33.09515869 22.97128174 -33.09266113 21.92303223 -33.09008789 20.84301758 C-33.08098389 19.51294678 -33.07187988 18.18287598 -33.0625 16.8125 C-33.041875 12.584375 -33.02125 8.35625 -33 4 C-22.11 4 -11.22 4 0 4 C0 2.68 0 1.36 0 0 Z " fill="#17171C" transform="translate(70,123)"/>
<path d="M0 0 C12.75380093 1.82850193 26.08590479 14.65509605 33.671875 24.4921875 C35.88834946 28.67741281 35.15867975 31.51011595 34 36 C30.7 36 27.4 36 24 36 C24 43.92 24 51.84 24 60 C22.68 60 21.36 60 20 60 C20 53.73 20 47.46 20 41 C18.35 41 16.7 41 15 41 C15 37.7 15 34.4 15 31 C13.35 31 11.7 31 10 31 C10 29.35 10 27.7 10 26 C8.35 26 6.7 26 5 26 C5 24.68 5 23.36 5 22 C3.35 22 1.7 22 0 22 C0 17.05 0 12.1 0 7 C-1.32 7 -2.64 7 -4 7 C-4 5.35 -4 3.7 -4 2 C-2.68 2 -1.36 2 0 2 C0 1.34 0 0.68 0 0 Z " fill="#85B7FC" transform="translate(123,14)"/>
<path d="M0 0 C3.3 0 6.6 0 10 0 C10 1.65 10 3.3 10 5 C20.89 5 31.78 5 43 5 C43.4375 14.875 43.4375 14.875 43.56811523 17.98388672 C43.6252771 19.19455811 43.6252771 19.19455811 43.68359375 20.4296875 C43.73858032 21.67081299 43.73858032 21.67081299 43.79467773 22.93701172 C43.88238327 25.06179429 43.88238327 25.06179429 45 27 C29.63888889 40 29.63888889 40 24 40 C24 36.37 24 32.74 24 29 C22.35 29 20.7 29 19 29 C19 26.03 19 23.06 19 20 C17.35 19.67 15.7 19.34 14 19 C14 16.03 14 13.06 14 10 C11.03 10 8.06 10 5 10 C5 8.35 5 6.7 5 5 C3.35 5 1.7 5 0 5 C0 3.35 0 1.7 0 0 Z " fill="#17171C" transform="translate(104,122)"/>
<path d="M0 0 C3.3 0 6.6 0 10 0 C10 1.65 10 3.3 10 5 C7.03 5 4.06 5 1 5 C1 6.65 1 8.3 1 10 C-0.65 10 -2.3 10 -4 10 C-4 14.29 -4 18.58 -4 23 C-2.68 23 -1.36 23 0 23 C0 21.68 0 20.36 0 19 C1.65 19 3.3 19 5 19 C5 17.35 5 15.7 5 14 C8.3 14 11.6 14 15 14 C15 15.65 15 17.3 15 19 C12.03 19 9.06 19 6 19 C6 20.65 6 22.3 6 24 C4.35 24 2.7 24 1 24 C1 27.3 1 30.6 1 34 C-0.65 34 -2.3 34 -4 34 C-4 36.97 -4 39.94 -4 43 C-2.68 43 -1.36 43 0 43 C0 44.65 0 46.3 0 48 C-1.32 48 -2.64 48 -4 48 C-4 49.65 -4 51.3 -4 53 C-8.62 53 -13.24 53 -18 53 C-18 43.43 -18 33.86 -18 24 C-16.68 24 -15.36 24 -14 24 C-14 20.7 -14 17.4 -14 14 C-12.35 14 -10.7 14 -9 14 C-9 12.35 -9 10.7 -9 9 C-7.35 9 -5.7 9 -4 9 C-4 7.35 -4 5.7 -4 4 C-2.68 4 -1.36 4 0 4 C0 2.68 0 1.36 0 0 Z " fill="#252525" transform="translate(60,31)"/>
<path d="M0 0 C0.33 0 0.66 0 1 0 C1 22.77 1 45.54 1 69 C-11.00192891 62.99903555 -17.58449711 47.5840189 -21.90625 35.45703125 C-24.15091788 28.25538848 -24.32202288 21.50194049 -24 14 C-22.02 14 -20.04 14 -18 14 C-18 20.6 -18 27.2 -18 34 C-12.06 34 -6.12 34 0 34 C0 22.78 0 11.56 0 0 Z " fill="#282833" transform="translate(31,79)"/>
<path d="M0 0 C1.65 0 3.3 0 5 0 C4.67 2.97 4.34 5.94 4 9 C2.68 9.33 1.36 9.66 0 10 C0 11.32 0 12.64 0 14 C1.32 14 2.64 14 4 14 C4.33 12.68 4.66 11.36 5 10 C5 11.65 5 13.3 5 15 C3.35 15 1.7 15 0 15 C0 16.65 0 18.3 0 20 C-1.65 20 -3.3 20 -5 20 C-5 21.32 -5 22.64 -5 24 C-0.05 24 4.9 24 10 24 C10 25.65 10 27.3 10 29 C11.32 29 12.64 29 14 29 C14 30.65 14 32.3 14 34 C12.35 34 10.7 34 9 34 C9 32.35 9 30.7 9 29 C4.38 29 -0.24 29 -5 29 C-5 27.68 -5 26.36 -5 25 C-9.62 25 -14.24 25 -19 25 C-19 26.32 -19 27.64 -19 29 C-23.95 29 -28.9 29 -34 29 C-34 30.65 -34 32.3 -34 34 C-35.65 34 -37.3 34 -39 34 C-39 32.35 -39 30.7 -39 29 C-41.97 29 -44.94 29 -48 29 C-48 27.35 -48 25.7 -48 24 C-46.68 24 -45.36 24 -44 24 C-44 22.35 -44 20.7 -44 19 C-40.7 19 -37.4 19 -34 19 C-34 17.68 -34 16.36 -34 15 C-30.7 15 -27.4 15 -24 15 C-24 16.65 -24 18.3 -24 20 C-27.3 20 -30.6 20 -34 20 C-34 21.32 -34 22.64 -34 24 C-29.38 24 -24.76 24 -20 24 C-20 22.35 -20 20.7 -20 19 C-16.7 19 -13.4 19 -10 19 C-10 16.03 -10 13.06 -10 10 C-5.545 9.505 -5.545 9.505 -1 9 C-0.67 6.03 -0.34 3.06 0 0 Z " fill="#3D3631" transform="translate(109,45)"/>
<path d="M0 0 C1.65 0 3.3 0 5 0 C5 1.65 5 3.3 5 5 C7.97 5 10.94 5 14 5 C14.33 7.97 14.66 10.94 15 14 C16.32 14.33 17.64 14.66 19 15 C19 17.97 19 20.94 19 24 C20.65 24 22.3 24 24 24 C24 27.63 24 31.26 24 35 C24.66 35.33 25.32 35.66 26 36 C21.36785457 38.64694025 19.65031797 39 14 39 C14 32.73 14 26.46 14 20 C12.35 19.67 10.7 19.34 9 19 C9 17.68 9 16.36 9 15 C7.68 15 6.36 15 5 15 C5 17.97 5 20.94 5 24 C6.32 24 7.64 24 9 24 C9 28.95 9 33.9 9 39 C6.03 39 3.06 39 0 39 C0 26.13 0 13.26 0 0 Z " fill="#424242" transform="translate(104,127)"/>
<path d="M0 0 C2.97 0 5.94 0 9 0 C9 1.65 9 3.3 9 5 C10.65 5 12.3 5 14 5 C14 9.95 14 14.9 14 20 C15.65 20 17.3 20 19 20 C19 21.65 19 23.3 19 25 C20.32 25 21.64 25 23 25 C23 26.32 23 27.64 23 29 C20.03 29 17.06 29 14 29 C14 27.68 14 26.36 14 25 C9.38 25 4.76 25 0 25 C0 23.35 0 21.7 0 20 C-1.65 20 -3.3 20 -5 20 C-5 18.35 -5 16.7 -5 15 C-16.22 15 -27.44 15 -39 15 C-39 13.35 -39 11.7 -39 10 C-26.13 10 -13.26 10 0 10 C0 11.65 0 13.3 0 15 C1.65 15 3.3 15 5 15 C5 11.7 5 8.4 5 5 C3.35 5 1.7 5 0 5 C0 3.35 0 1.7 0 0 Z " fill="#121314" transform="translate(109,16)"/>
<path d="M0 0 C4.62 0 9.24 0 14 0 C14 11.88 14 23.76 14 36 C9.38 36 4.76 36 0 36 C0 24.12 0 12.24 0 0 Z " fill="#C61C1C" transform="translate(85,137)"/>
<path d="M0 0 C0.33 0 0.66 0 1 0 C1 12.54 1 25.08 1 38 C-8.57 38 -18.14 38 -28 38 C-28 36.68 -28 35.36 -28 34 C-26.68 34 -25.36 34 -24 34 C-24 32.35 -24 30.7 -24 29 C-22.35 29 -20.7 29 -19 29 C-19 27.35 -19 25.7 -19 24 C-17.35 24 -15.7 24 -14 24 C-14 22.35 -14 20.7 -14 19 C-12.35 19 -10.7 19 -9 19 C-9 17.35 -9 15.7 -9 14 C-6.03 14 -3.06 14 0 14 C0 12.35 0 10.7 0 9 C-1.32 9 -2.64 9 -4 9 C-4 7.68 -4 6.36 -4 5 C-2.68 5 -1.36 5 0 5 C0 3.35 0 1.7 0 0 Z " fill="#376099" transform="translate(147,84)"/>
<path d="M0 0 C4.62 0 9.24 0 14 0 C14 9.57 14 19.14 14 29 C11.03 28.67 8.06 28.34 5 28 C5 23.38 5 18.76 5 14 C6.32 14 7.64 14 9 14 C9 11.03 9 8.06 9 5 C7.68 5 6.36 5 5 5 C5 6.32 5 7.64 5 9 C3.02 9 1.04 9 -1 9 C-1 15.27 -1 21.54 -1 28 C-3.97 28.33 -6.94 28.66 -10 29 C-10 24.05 -10 19.1 -10 14 C-8.35 14 -6.7 14 -5 14 C-5 11.03 -5 8.06 -5 5 C-3.68 4.67 -2.36 4.34 -1 4 C-0.67 2.68 -0.34 1.36 0 0 Z " fill="#424242" transform="translate(66,137)"/>
<path d="M0 0 C0.33 0 0.66 0 1 0 C1 17.49 1 34.98 1 53 C5.29 53 9.58 53 14 53 C14.22786458 54.953125 14.45572917 56.90625 14.68359375 58.859375 C14.91991763 60.99581127 14.91991763 60.99581127 15.72265625 62.8828125 C16.68559347 70.23368536 7.54115166 80.42474966 3.48046875 86.26953125 C2.99191406 86.84058594 2.50335938 87.41164063 2 88 C1.34 88 0.68 88 0 88 C0 58.96 0 29.92 0 0 Z " fill="#292933" transform="translate(152,55)"/>
<path d="M0 0 C2.97 0 5.94 0 9 0 C9 1.65 9 3.3 9 5 C10.65 5 12.3 5 14 5 C14 6.65 14 8.3 14 10 C15.32 10 16.64 10 18 10 C18 11.65 18 13.3 18 15 C19.65 15 21.3 15 23 15 C23 17.97 23 20.94 23 24 C15.41 24 7.82 24 0 24 C0 16.08 0 8.16 0 0 Z " fill="#376099" transform="translate(37,98)"/>
<path d="M0 0 C4.95 0 9.9 0 15 0 C15 7.92 15 15.84 15 24 C16.65 24 18.3 24 20 24 C20 25.65 20 27.3 20 29 C22.97 29 25.94 29 29 29 C29 30.32 29 31.64 29 33 C26.03 33 23.06 33 20 33 C20 34.98 20 36.96 20 39 C12.08 39 4.16 39 -4 39 C-4 38.67 -4 38.34 -4 38 C3.59 38 11.18 38 19 38 C19 35.03 19 32.06 19 29 C17.35 29 15.7 29 14 29 C14 27.35 14 25.7 14 24 C12.68 24 11.36 24 10 24 C10 22.35 10 20.7 10 19 C8.35 19 6.7 19 5 19 C5 17.35 5 15.7 5 14 C3.35 14 1.7 14 0 14 C0 9.38 0 4.76 0 0 Z " fill="#945D3A" transform="translate(41,84)"/>
<path d="M0 0 C9.57 0 19.14 0 29 0 C29 1.65 29 3.3 29 5 C24.05 5 19.1 5 14 5 C14 6.32 14 7.64 14 9 C9.38 9 4.76 9 0 9 C0 10.65 0 12.3 0 14 C-1.65 14 -3.3 14 -5 14 C-5 15.65 -5 17.3 -5 19 C-6.65 19 -8.3 19 -10 19 C-10 20.32 -10 21.64 -10 23 C-11.32 23 -12.64 23 -14 23 C-14 18.71 -14 14.42 -14 10 C-12.35 10 -10.7 10 -9 10 C-9 8.35 -9 6.7 -9 5 C-6.03 5 -3.06 5 0 5 C0 3.35 0 1.7 0 0 Z " fill="#5E5E5E" transform="translate(70,31)"/>
<path d="M0 0 C1.65 0 3.3 0 5 0 C5 6.27 5 12.54 5 19 C1.7 19 -1.6 19 -5 19 C-5 20.65 -5 22.3 -5 24 C-9.62 24 -14.24 24 -19 24 C-19 22.68 -19 21.36 -19 20 C-15.7 20 -12.4 20 -9 20 C-9 18.35 -9 16.7 -9 15 C-12.3 15 -15.6 15 -19 15 C-19 13.35 -19 11.7 -19 10 C-15.7 10 -12.4 10 -9 10 C-9 8.35 -9 6.7 -9 5 C-6.03 5 -3.06 5 0 5 C0 3.35 0 1.7 0 0 Z " fill="#2C2C2D" transform="translate(94,45)"/>
<path d="M0 0 C7.92 0 15.84 0 24 0 C24 1.32 24 2.64 24 4 C19.38 4 14.76 4 10 4 C10 5.98 10 7.96 10 10 C8.35 10 6.7 10 5 10 C5 14.29 5 18.58 5 23 C9.95 23.33 14.9 23.66 20 24 C20 25.32 20 26.64 20 28 C16.7 28 13.4 28 10 28 C10 26.68 10 25.36 10 24 C7.03 24 4.06 24 1 24 C1 22.35 1 20.7 1 19 C-0.65 19 -2.3 19 -4 19 C-4 15.7 -4 12.4 -4 9 C-2.68 9 -1.36 9 0 9 C0 6.03 0 3.06 0 0 Z " fill="#F1B892" transform="translate(60,89)"/>
<path d="M0 0 C3.3 0 6.6 0 10 0 C10 1.65 10 3.3 10 5 C7.03 5 4.06 5 1 5 C1 6.65 1 8.3 1 10 C-0.65 10 -2.3 10 -4 10 C-4 14.29 -4 18.58 -4 23 C-2.68 23 -1.36 23 0 23 C0 21.68 0 20.36 0 19 C1.65 19 3.3 19 5 19 C5 17.35 5 15.7 5 14 C8.3 14 11.6 14 15 14 C15 15.65 15 17.3 15 19 C12.03 19 9.06 19 6 19 C6 20.65 6 22.3 6 24 C2.37 24 -1.26 24 -5 24 C-5 26.97 -5 29.94 -5 33 C-6.32 33 -7.64 33 -9 33 C-9 25.08 -9 17.16 -9 9 C-7.35 9 -5.7 9 -4 9 C-4 7.35 -4 5.7 -4 4 C-2.68 4 -1.36 4 0 4 C0 2.68 0 1.36 0 0 Z " fill="#424242" transform="translate(60,31)"/>
<path d="M0 0 C3.3 0 6.6 0 10 0 C10 1.65 10 3.3 10 5 C6.7 5 3.4 5 0 5 C0 6.32 0 7.64 0 9 C4.62 9 9.24 9 14 9 C14 10.65 14 12.3 14 14 C9.38 14 4.76 14 0 14 C0 15.65 0 17.3 0 19 C-1.65 19 -3.3 19 -5 19 C-5 17.35 -5 15.7 -5 14 C-7.97 14 -10.94 14 -14 14 C-14 12.35 -14 10.7 -14 9 C-12.68 9 -11.36 9 -10 9 C-10 7.35 -10 5.7 -10 4 C-6.7 4 -3.4 4 0 4 C0 2.68 0 1.36 0 0 Z " fill="#26201C" transform="translate(75,60)"/>
<path d="M0 0 C1.32 0 2.64 0 4 0 C4 2.97 4 5.94 4 9 C2.68 9 1.36 9 0 9 C0 13.62 0 18.24 0 23 C2.97 23.33 5.94 23.66 9 24 C9 25.98 9 27.96 9 30 C3.72 29.34 -1.56 28.68 -7 28 C-7 27.34 -7 26.68 -7 26 C-8.65 26 -10.3 26 -12 26 C-11.505 24.515 -11.505 24.515 -11 23 C-9.35 23 -7.7 23 -6 23 C-6 16.73 -6 10.46 -6 4 C-4.02 4 -2.04 4 0 4 C0 2.68 0 1.36 0 0 Z " fill="#252528" transform="translate(71,142)"/>
<path d="M0 0 C2.97 0 5.94 0 9 0 C9 1.32 9 2.64 9 4 C10.65 4 12.3 4 14 4 C14 5.65 14 7.3 14 9 C15.32 9 16.64 9 18 9 C19.32286246 13.96073422 19.08893197 18.91111512 19 24 C17.35 24 15.7 24 14 24 C14 22.02 14 20.04 14 18 C12.68 18 11.36 18 10 18 C10 16.68 10 15.36 10 14 C8.35 14 6.7 14 5 14 C5 12.35 5 10.7 5 9 C3.35 9 1.7 9 0 9 C0 6.03 0 3.06 0 0 Z " fill="#525252" transform="translate(114,41)"/>
<path d="M0 0 C3.3 0 6.6 0 10 0 C10 6.27 10 12.54 10 19 C8.35 19 6.7 19 5 19 C5 20.65 5 22.3 5 24 C3.35 24 1.7 24 0 24 C0 16.08 0 8.16 0 0 Z " fill="#925B38" transform="translate(128,84)"/>
<path d="M0 0 C2.97 0 5.94 0 9 0 C9 1.65 9 3.3 9 5 C10.65 5 12.3 5 14 5 C14 9.95 14 14.9 14 20 C15.32 20 16.64 20 18 20 C18 21.32 18 22.64 18 24 C13.71 24 9.42 24 5 24 C5 22.68 5 21.36 5 20 C6.65 20 8.3 20 10 20 C10 18.35 10 16.7 10 15 C8.35 15 6.7 15 5 15 C5 11.7 5 8.4 5 5 C3.35 5 1.7 5 0 5 C0 3.35 0 1.7 0 0 Z " fill="#010203" transform="translate(109,16)"/>
<path d="M0 0 C7.92 0 15.84 0 24 0 C24 1.65 24 3.3 24 5 C22.35 5 20.7 5 19 5 C19 6.65 19 8.3 19 10 C14.05 10 9.1 10 4 10 C4 8.35 4 6.7 4 5 C2.68 5 1.36 5 0 5 C0 3.35 0 1.7 0 0 Z " fill="#915A35" transform="translate(80,122)"/>
<path d="M0 0 C1.65 0 3.3 0 5 0 C5 3.3 5 6.6 5 10 C3.68 10 2.36 10 1 10 C1.00523682 10.70084717 1.01047363 11.40169434 1.01586914 12.1237793 C1.03670852 15.31167701 1.04968232 18.49956036 1.0625 21.6875 C1.07087891 22.79029297 1.07925781 23.89308594 1.08789062 25.02929688 C1.09111328 26.09599609 1.09433594 27.16269531 1.09765625 28.26171875 C1.10289307 29.24100342 1.10812988 30.22028809 1.11352539 31.22924805 C1.00308543 33.92469572 0.60534166 36.37545639 0 39 C-1.32 39 -2.64 39 -4 39 C-4 29.43 -4 19.86 -4 10 C-2.68 10 -1.36 10 0 10 C0 6.7 0 3.4 0 0 Z " fill="#020101" transform="translate(46,45)"/>
<path d="M0 0 C1.32 0 2.64 0 4 0 C4.33 1.32 4.66 2.64 5 4 C6.32 4.33 7.64 4.66 9 5 C9 11.27 9 17.54 9 24 C9.99 24.33 10.98 24.66 12 25 C11 26 11 26 8.4375 26.0625 C7.633125 26.041875 6.82875 26.02125 6 26 C6 26.66 6 27.32 6 28 C2.37 28 -1.26 28 -5 28 C-5 26.68 -5 25.36 -5 24 C-2.03 24 0.94 24 4 24 C4 19.05 4 14.1 4 9 C2.68 9 1.36 9 0 9 C0 6.03 0 3.06 0 0 Z " fill="#252526" transform="translate(109,142)"/>
<path d="M0 0 C1.65 0 3.3 0 5 0 C5 1.65 5 3.3 5 5 C3.35 5 1.7 5 0 5 C0 6.65 0 8.3 0 10 C1.65 10 3.3 10 5 10 C5 11.65 5 13.3 5 15 C3.68 15 2.36 15 1 15 C1 16.32 1 17.64 1 19 C2.32 19 3.64 19 5 19 C5 20.65 5 22.3 5 24 C2.03 24 -0.94 24 -4 24 C-4.24970296 21.27131829 -4.47531211 18.54413986 -4.6875 15.8125 C-4.76033203 15.04357422 -4.83316406 14.27464844 -4.90820312 13.48242188 C-5.25073351 8.78774073 -5.19351677 5.78518971 -2 2 C-1.34 2 -0.68 2 0 2 C0 1.34 0 0.68 0 0 Z " fill="#636382" transform="translate(17,50)"/>
<path d="M0 0 C12.21 0 24.42 0 37 0 C37 1.32 37 2.64 37 4 C24.79 4 12.58 4 0 4 C0 2.68 0 1.36 0 0 Z " fill="#000102" transform="translate(71,26)"/>
<path d="M0 0 C4.62 0 9.24 0 14 0 C14 1.32 14 2.64 14 4 C12.35 4 10.7 4 9 4 C9 5.65 9 7.3 9 9 C7.35 9 5.7 9 4 9 C4 10.65 4 12.3 4 14 C2.35 14 0.7 14 -1 14 C-1 12.35 -1 10.7 -1 9 C-2.32 9 -3.64 9 -5 9 C-5 7.68 -5 6.36 -5 5 C-3.68 4.67 -2.36 4.34 -1 4 C-0.67 2.68 -0.34 1.36 0 0 Z " fill="#FEF5D0" transform="translate(71,94)"/>
<path d="M0 0 C7.92 0 15.84 0 24 0 C24 1.32 24 2.64 24 4 C19.38 4 14.76 4 10 4 C10 5.65 10 7.3 10 9 C6.7 9 3.4 9 0 9 C0 6.03 0 3.06 0 0 Z " fill="#080706" transform="translate(99,89)"/>
<path d="M0 0 C3.3 0 6.6 0 10 0 C10 1.65 10 3.3 10 5 C8.35 5 6.7 5 5 5 C5 6.32 5 7.64 5 9 C2.03 9 -0.94 9 -4 9 C-4 10.65 -4 12.3 -4 14 C-7.3 14 -10.6 14 -14 14 C-14 12.35 -14 10.7 -14 9 C-11.03 9 -8.06 9 -5 9 C-4.67 7.35 -4.34 5.7 -4 4 C-2.68 4 -1.36 4 0 4 C0 2.68 0 1.36 0 0 Z " fill="#9C643F" transform="translate(118,108)"/>
<path d="M0 0 C0.33 0 0.66 0 1 0 C1 9.57 1 19.14 1 29 C2.32 29 3.64 29 5 29 C5 30.65 5 32.3 5 34 C3.68 34 2.36 34 1 34 C1 35.32 1 36.64 1 38 C2.32 38 3.64 38 5 38 C5 39.65 5 41.3 5 43 C2.03 43 -0.94 43 -4 43 C-4 38.38 -4 33.76 -4 29 C-2.68 29 -1.36 29 0 29 C0 19.43 0 9.86 0 0 Z " fill="#3F4C66" transform="translate(142,55)"/>
<path d="M0 0 C4.62 0 9.24 0 14 0 C14 1.32 14 2.64 14 4 C12.35 4 10.7 4 9 4 C9 5.65 9 7.3 9 9 C7.35 9 5.7 9 4 9 C4 10.32 4 11.64 4 13 C2.68 13 1.36 13 0 13 C0 11.68 0 10.36 0 9 C-1.65 9 -3.3 9 -5 9 C-5 7.68 -5 6.36 -5 5 C-3.35 5 -1.7 5 0 5 C0 3.35 0 1.7 0 0 Z " fill="#FEF6D1" transform="translate(109,94)"/>
<path d="M0 0 C7.59 0 15.18 0 23 0 C23 1.32 23 2.64 23 4 C18.38 4 13.76 4 9 4 C9 5.65 9 7.3 9 9 C6.03 9 3.06 9 0 9 C0 6.03 0 3.06 0 0 Z " fill="#030302" transform="translate(61,89)"/>
<path d="M0 0 C4.62 0 9.24 0 14 0 C14 2.97 14 5.94 14 9 C9.38 9 4.76 9 0 9 C0 6.03 0 3.06 0 0 Z " fill="#AD0303" transform="translate(85,137)"/>
<path d="M0 0 C1.32 0 2.64 0 4 0 C4 4.62 4 9.24 4 14 C2.68 14 1.36 14 0 14 C0 15.65 0 17.3 0 19 C1.32 19 2.64 19 4 19 C4 20.65 4 22.3 4 24 C2.35 24 0.7 24 -1 24 C-1 22.35 -1 20.7 -1 19 C-2.32 19 -3.64 19 -5 19 C-5 16.03 -5 13.06 -5 10 C-3.35 10 -1.7 10 0 10 C0 6.7 0 3.4 0 0 Z " fill="#403E3D" transform="translate(61,55)"/>
<path d="M0 0 C9.9 0 19.8 0 30 0 C30 1.65 30 3.3 30 5 C31.32 5 32.64 5 34 5 C34 6.65 34 8.3 34 10 C32.35 10 30.7 10 29 10 C29 8.35 29 6.7 29 5 C24.38 5 19.76 5 15 5 C15 3.68 15 2.36 15 1 C10.38 1 5.76 1 1 1 C0.67 2.32 0.34 3.64 0 5 C0 3.35 0 1.7 0 0 Z " fill="#A97C5E" transform="translate(89,69)"/>
<path d="M0 0 C1.65 0 3.3 0 5 0 C5 2.97 5 5.94 5 9 C6.32 9 7.64 9 9 9 C9 10.65 9 12.3 9 14 C7.68 14 6.36 14 5 14 C5 15.65 5 17.3 5 19 C3.35 19 1.7 19 0 19 C0 12.73 0 6.46 0 0 Z " fill="#090705" transform="translate(51,65)"/>
<path d="M0 0 C1.32 0 2.64 0 4 0 C4 9.24 4 18.48 4 28 C2.68 28 1.36 28 0 28 C0 18.76 0 9.52 0 0 Z " fill="#010000" transform="translate(138,56)"/>
<path d="M0 0 C2.97 0 5.94 0 9 0 C9 1.32 9 2.64 9 4 C7.68 4 6.36 4 5 4 C5 5.65 5 7.3 5 9 C0.05 9 -4.9 9 -10 9 C-10 7.35 -10 5.7 -10 4 C-6.7 4 -3.4 4 0 4 C0 2.68 0 1.36 0 0 Z " fill="#1C1B1A" transform="translate(99,60)"/>
<path d="M0 0 C2.97 0 5.94 0 9 0 C10.32286246 4.96073422 10.08893197 9.91111512 10 15 C8.35 15 6.7 15 5 15 C5 13.02 5 11.04 5 9 C3.68 9 2.36 9 1 9 C0.67 6.03 0.34 3.06 0 0 Z " fill="#545454" transform="translate(123,50)"/>
<path d="M0 0 C1.98 0 3.96 0 6 0 C6 6.6 6 13.2 6 20 C4.68 19.67 3.36 19.34 2 19 C-0.03286122 14.69135704 -0.22114809 10.83625621 -0.125 6.125 C-0.10695313 4.97257812 -0.08890625 3.82015625 -0.0703125 2.6328125 C-0.04710937 1.76398438 -0.02390625 0.89515625 0 0 Z " fill="#CEA935" transform="translate(7,93)"/>
<path d="M0 0 C1.32 0 2.64 0 4 0 C4 1.65 4 3.3 4 5 C5.65 5 7.3 5 9 5 C9 7.97 9 10.94 9 14 C4.545 14.495 4.545 14.495 0 15 C0 10.05 0 5.1 0 0 Z " fill="#292929" transform="translate(56,151)"/>
<path d="M0 0 C1.65 0 3.3 0 5 0 C5 3.3 5 6.6 5 10 C0.38 10 -4.24 10 -9 10 C-9.33 11.32 -9.66 12.64 -10 14 C-10 11.03 -10 8.06 -10 5 C-6.7 5 -3.4 5 0 5 C0 3.35 0 1.7 0 0 Z " fill="#282828" transform="translate(75,127)"/>
<path d="M0 0 C3.3 0 6.6 0 10 0 C10 1.65 10 3.3 10 5 C7.03 5 4.06 5 1 5 C1 6.65 1 8.3 1 10 C-0.65 10 -2.3 10 -4 10 C-4 11.32 -4 12.64 -4 14 C-5.65 14 -7.3 14 -9 14 C-9 12.35 -9 10.7 -9 9 C-7.35 9 -5.7 9 -4 9 C-4 7.35 -4 5.7 -4 4 C-2.68 4 -1.36 4 0 4 C0 2.68 0 1.36 0 0 Z " fill="#0C1017" transform="translate(60,31)"/>
<path d="M0 0 C1.32 0 2.64 0 4 0 C4 2.97 4 5.94 4 9 C2.35 9 0.7 9 -1 9 C-1 12.3 -1 15.6 -1 19 C-2.65 19 -4.3 19 -6 19 C-5.67 14.38 -5.34 9.76 -5 5 C-3.68 4.67 -2.36 4.34 -1 4 C-0.67 2.68 -0.34 1.36 0 0 Z " fill="#454545" transform="translate(66,137)"/>
<path d="M0 0 C0 1.65 0 3.3 0 5 C-2.97 5 -5.94 5 -9 5 C-9 8.3 -9 11.6 -9 15 C-10.65 15 -12.3 15 -14 15 C-14.33 11.7 -14.66 8.4 -15 5 C-12 3 -12 3 -9 3 C-9 2.34 -9 1.68 -9 1 C-3.375 -1.125 -3.375 -1.125 0 0 Z " fill="#4B85D6" transform="translate(65,11)"/>
<path d="M0 0 C1.98 0 3.96 0 6 0 C6 1.65 6 3.3 6 5 C8.97 5 11.94 5 15 5 C15 6.32 15 7.64 15 9 C12.03 9 9.06 9 6 9 C6 10.98 6 12.96 6 15 C-1.92 15 -9.84 15 -18 15 C-18 14.67 -18 14.34 -18 14 C-10.41 14 -2.82 14 5 14 C5 11.03 5 8.06 5 5 C3.35 5 1.7 5 0 5 C0 3.35 0 1.7 0 0 Z " fill="#596181" transform="translate(55,108)"/>
<path d="M0 0 C4.62 0 9.24 0 14 0 C14 2.31 14 4.62 14 7 C9.38 7 4.76 7 0 7 C0 4.69 0 2.38 0 0 Z " fill="#AA0000" transform="translate(85,166)"/>
<path d="M0 0 C0.66 0.33 1.32 0.66 2 1 C2 4.96 2 8.92 2 13 C3.32 13 4.64 13 6 13 C6 14.65 6 16.3 6 18 C2.7 18 -0.6 18 -4 18 C-4.19944639 13.7119027 -3.71483097 10.90600388 -2 7 C-1.31320058 4.67251306 -0.64238957 2.34013344 0 0 Z " fill="#46465A" transform="translate(11,61)"/>
<path d="M0 0 C3.3 0 6.6 0 10 0 C10 1.98 10 3.96 10 6 C10.66 6.33 11.32 6.66 12 7 C7.77050005 9.41685712 4.87664009 10.34833144 0 10 C0 6.7 0 3.4 0 0 Z " fill="#2A2A2B" transform="translate(118,156)"/>
<path d="M0 0 C7.92 0 15.84 0 24 0 C24 1.32 24 2.64 24 4 C16.08 4 8.16 4 0 4 C0 2.68 0 1.36 0 0 Z " fill="#F3B993" transform="translate(80,118)"/>
<path d="M0 0 C1.32 0 2.64 0 4 0 C4 2.97 4 5.94 4 9 C2.68 9 1.36 9 0 9 C0 13.62 0 18.24 0 23 C1.32 23.33 2.64 23.66 4 24 C2.35 24 0.7 24 -1 24 C-1 19.05 -1 14.1 -1 9 C-2.32 9 -3.64 9 -5 9 C-5 10.65 -5 12.3 -5 14 C-5.33 14 -5.66 14 -6 14 C-6 10.7 -6 7.4 -6 4 C-4.02 4 -2.04 4 0 4 C0 2.68 0 1.36 0 0 Z " fill="#2A2A2A" transform="translate(71,142)"/>
<path d="M0 0 C1.9375 0.375 1.9375 0.375 4 1 C5.20272819 3.40545638 5.10071472 4.94996953 5.0625 7.625 C5.05347656 8.44226562 5.04445312 9.25953125 5.03515625 10.1015625 C5.02355469 10.72804688 5.01195312 11.35453125 5 12 C3.68 12 2.36 12 1 12 C1 14.97 1 17.94 1 21 C2.32 21.33 3.64 21.66 5 22 C3.35 22 1.7 22 0 22 C0 17.05 0 12.1 0 7 C-1.32 7 -2.64 7 -4 7 C-4 5.35 -4 3.7 -4 2 C-2.68 2 -1.36 2 0 2 C0 1.34 0 0.68 0 0 Z " fill="#6598DE" transform="translate(123,14)"/>
<path d="M0 0 C3.3 0 6.6 0 10 0 C10 1.65 10 3.3 10 5 C11.32 5 12.64 5 14 5 C14 6.32 14 7.64 14 9 C11.03 9 8.06 9 5 9 C5 7.68 5 6.36 5 5 C3.35 5 1.7 5 0 5 C0 3.35 0 1.7 0 0 Z " fill="#080606" transform="translate(104,122)"/>
<path d="M0 0 C1.32 0 2.64 0 4 0 C4 6.27 4 12.54 4 19 C2.35 19 0.7 19 -1 19 C-1.02714735 16.77090129 -1.04646254 14.54170633 -1.0625 12.3125 C-1.07990234 10.45044922 -1.07990234 10.45044922 -1.09765625 8.55078125 C-1.01478673 5.53764546 -0.70839449 2.91724661 0 0 Z " fill="#20447A" transform="translate(37,79)"/>
<path d="M0 0 C2.97 0 5.94 0 9 0 C9 2.97 9 5.94 9 9 C5.7 9 2.4 9 -1 9 C-0.67 6.03 -0.34 3.06 0 0 Z " fill="#565656" transform="translate(90,55)"/>
<path d="M0 0 C1.65 0 3.3 0 5 0 C5 12.87 5 25.74 5 39 C3.35 39 1.7 39 0 39 C0 35.7 0 32.4 0 29 C1.32 29 2.64 29 4 29 C4 19.76 4 10.52 4 1 C2.68 0.67 1.36 0.34 0 0 Z " fill="#D79F7B" transform="translate(123,69)"/>
<path d="M0 0 C1.32 0 2.64 0 4 0 C6.02558881 3.34939881 6.21738987 5.86962551 6.125 9.75 C6.10695312 10.73484375 6.08890625 11.7196875 6.0703125 12.734375 C6.03550781 13.85585937 6.03550781 13.85585937 6 15 C3.03 14.505 3.03 14.505 0 14 C0 9.38 0 4.76 0 0 Z " fill="#BC930D" transform="translate(167,74)"/>
<path d="M0 0 C0.33 0 0.66 0 1 0 C1 22.77 1 45.54 1 69 C-0.32 67.68 -1.64 66.36 -3 65 C-3 64.34 -3 63.68 -3 63 C-2.01 63 -1.02 63 0 63 C0 42.21 0 21.42 0 0 Z " fill="#323241" transform="translate(31,79)"/>
<path d="M0 0 C2.97 0 5.94 0 9 0 C9 1.32 9 2.64 9 4 C7.68 4.33 6.36 4.66 5 5 C4.67 6.32 4.34 7.64 4 9 C1.03 9 -1.94 9 -5 9 C-5 7.68 -5 6.36 -5 5 C-3.35 5 -1.7 5 0 5 C0 3.35 0 1.7 0 0 Z " fill="#F4BA94" transform="translate(109,108)"/>
<path d="M0 0 C1.32 0 2.64 0 4 0 C4 5.94 4 11.88 4 18 C2.02 17.34 0.04 16.68 -2 16 C-1.34 15.67 -0.68 15.34 0 15 C-0.08378906 14.33613281 -0.16757813 13.67226562 -0.25390625 12.98828125 C-1.26537786 4.21792619 -1.26537786 4.21792619 0 0 Z " fill="#020202" transform="translate(66,151)"/>
<path d="M0 0 C3.3 0 6.6 0 10 0 C10 1.65 10 3.3 10 5 C7.03 5 4.06 5 1 5 C1 6.65 1 8.3 1 10 C-0.65 10 -2.3 10 -4 10 C-4 8.35 -4 6.7 -4 5 C-2.68 5 -1.36 5 0 5 C0 3.35 0 1.7 0 0 Z " fill="#333334" transform="translate(65,45)"/>
<path d="M0 0 C1.65 0 3.3 0 5 0 C5 3.3 5 6.6 5 10 C3.68 10 2.36 10 1 10 C1 17.92 1 25.84 1 34 C0.67 34 0.34 34 0 34 C0 22.78 0 11.56 0 0 Z " fill="#12171D" transform="translate(46,45)"/>
<path d="M0 0 C4.62 0 9.24 0 14 0 C14 1.65 14 3.3 14 5 C9.38 5 4.76 5 0 5 C0 3.35 0 1.7 0 0 Z " fill="#520404" transform="translate(85,132)"/>
<path d="M0 0 C4.62 0 9.24 0 14 0 C14 1.65 14 3.3 14 5 C9.38 5 4.76 5 0 5 C0 3.35 0 1.7 0 0 Z " fill="#E8AE8A" transform="translate(85,127)"/>
<path d="M0 0 C1.65 0 3.3 0 5 0 C5 4.62 5 9.24 5 14 C3.35 14 1.7 14 0 14 C0 9.38 0 4.76 0 0 Z " fill="#F3B993" transform="translate(133,84)"/>
<path d="M0 0 C1.65 0 3.3 0 5 0 C5 4.62 5 9.24 5 14 C3.35 14 1.7 14 0 14 C0 9.38 0 4.76 0 0 Z " fill="#865639" transform="translate(41,84)"/>
<path d="M0 0 C1.65 0 3.3 0 5 0 C5 4.62 5 9.24 5 14 C3.35 14 1.7 14 0 14 C0 9.38 0 4.76 0 0 Z " fill="#D79D77" transform="translate(46,84)"/>
<path d="M0 0 C1.32 0 2.64 0 4 0 C4 4.95 4 9.9 4 15 C4.99 15.33 5.98 15.66 7 16 C5 17 5 17 0 16 C0 10.72 0 5.44 0 0 Z " fill="#020202" transform="translate(114,151)"/>
<path d="M0 0 C2.97 0 5.94 0 9 0 C9 1.32 9 2.64 9 4 C7.35 4 5.7 4 4 4 C4 5.32 4 6.64 4 8 C1.36 8 -1.28 8 -4 8 C-4 6.68 -4 5.36 -4 4 C-2.68 4 -1.36 4 0 4 C0 2.68 0 1.36 0 0 Z " fill="#010101" transform="translate(70,123)"/>
<path d="M0 0 C0.33 0 0.66 0 1 0 C1 2.97 1 5.94 1 9 C3.97 9 6.94 9 10 9 C10 9.33 10 9.66 10 10 C7.03 10 4.06 10 1 10 C1 12.97 1 15.94 1 19 C-0.65 19 -2.3 19 -4 19 C-4 15.7 -4 12.4 -4 9 C-2.68 9 -1.36 9 0 9 C0 6.03 0 3.06 0 0 Z " fill="#D49A74" transform="translate(60,89)"/>
<path d="M0 0 C0.66 0 1.32 0 2 0 C2 0.66 2 1.32 2 2 C2.66 2 3.32 2 4 2 C5.32 4.97 6.64 7.94 8 11 C7 12 7 12 3.4375 12.0625 C2.303125 12.041875 1.16875 12.02125 0 12 C0 8.04 0 4.08 0 0 Z " fill="#5C5E7C" transform="translate(157,43)"/>
<path d="M0 0 C1.65 0 3.3 0 5 0 C5 1.65 5 3.3 5 5 C6.32 5 7.64 5 9 5 C9 6.32 9 7.64 9 9 C6.03 9 3.06 9 0 9 C0 6.03 0 3.06 0 0 Z " fill="#262626" transform="translate(104,127)"/>
<path d="M0 0 C2.97 0 5.94 0 9 0 C9 2.97 9 5.94 9 9 C7.35 9 5.7 9 4 9 C4 7.35 4 5.7 4 4 C2.68 4 1.36 4 0 4 C0 2.68 0 1.36 0 0 Z " fill="#865230" transform="translate(66,70)"/>
<path d="M0 0 C3.3 0 6.6 0 10 0 C10 0.33 10 0.66 10 1 C7.03 1 4.06 1 1 1 C1 10.24 1 19.48 1 29 C-0.65 29 -2.3 29 -4 29 C-4 27.35 -4 25.7 -4 24 C-2.68 24 -1.36 24 0 24 C0 16.08 0 8.16 0 0 Z " fill="#6A7AA6" transform="translate(147,50)"/>
<path d="M0 0 C4.62 0 9.24 0 14 0 C14 1.32 14 2.64 14 4 C9.38 4 4.76 4 0 4 C0 2.68 0 1.36 0 0 Z " fill="#C61D1D" transform="translate(85,137)"/>
<path d="M0 0 C4.62 0 9.24 0 14 0 C14 1.32 14 2.64 14 4 C9.38 4 4.76 4 0 4 C0 2.68 0 1.36 0 0 Z " fill="#FDFCFB" transform="translate(109,94)"/>
<path d="M0 0 C4.62 0 9.24 0 14 0 C14 1.32 14 2.64 14 4 C9.38 4 4.76 4 0 4 C0 2.68 0 1.36 0 0 Z " fill="#FEFCFB" transform="translate(71,94)"/>
<path d="M0 0 C1.32 0 2.64 0 4 0 C4 4.62 4 9.24 4 14 C2.68 14 1.36 14 0 14 C0 9.38 0 4.76 0 0 Z " fill="#8F5631" transform="translate(138,84)"/>
<path d="M0 0 C4.62 0 9.24 0 14 0 C14 1.32 14 2.64 14 4 C9.38 4 4.76 4 0 4 C0 2.68 0 1.36 0 0 Z " fill="#925832" transform="translate(104,70)"/>
<path d="M0 0 C4.62 0 9.24 0 14 0 C14 1.32 14 2.64 14 4 C9.38 4 4.76 4 0 4 C0 2.68 0 1.36 0 0 Z " fill="#020100" transform="translate(75,70)"/>
<path d="M0 0 C1.32 0 2.64 0 4 0 C4 4.62 4 9.24 4 14 C2.68 14 1.36 14 0 14 C0 9.38 0 4.76 0 0 Z " fill="#434343" transform="translate(61,55)"/>
<path d="M0 0 C3.3 0 6.6 0 10 0 C10 1.65 10 3.3 10 5 C5.38 5 0.76 5 -4 5 C-2.68 4.67 -1.36 4.34 0 4 C0 2.68 0 1.36 0 0 Z " fill="#D19771" transform="translate(118,108)"/>
<path d="M0 0 C0.33 0 0.66 0 1 0 C1 12.54 1 25.08 1 38 C0.67 38 0.34 38 0 38 C0 28.43 0 18.86 0 9 C-1.32 9 -2.64 9 -4 9 C-4 7.68 -4 6.36 -4 5 C-2.68 5 -1.36 5 0 5 C0 3.35 0 1.7 0 0 Z " fill="#495F8D" transform="translate(147,84)"/>
<path d="M0 0 C1.65 0 3.3 0 5 0 C5 1.65 5 3.3 5 5 C3.68 5 2.36 5 1 5 C1 6.32 1 7.64 1 9 C2.32 9 3.64 9 5 9 C5 10.65 5 12.3 5 14 C3.35 14 1.7 14 0 14 C0 9.38 0 4.76 0 0 Z " fill="#33578E" transform="translate(17,60)"/>
<path d="M0 0 C1.65 0 3.3 0 5 0 C5 1.65 5 3.3 5 5 C6.65 5 8.3 5 10 5 C10 8.3 10 11.6 10 15 C9.67 15 9.34 15 9 15 C9 12.03 9 9.06 9 6 C7.68 6 6.36 6 5 6 C5 8.97 5 11.94 5 15 C4.67 15 4.34 15 4 15 C4 13.35 4 11.7 4 10 C2.68 10 1.36 10 0 10 C0 8.35 0 6.7 0 5 C1.32 5 2.64 5 4 5 C4 3.68 4 2.36 4 1 C2.68 0.67 1.36 0.34 0 0 Z " fill="#292F39" transform="translate(128,40)"/>
<path d="M0 0 C1.65 0 3.3 0 5 0 C5 1.65 5 3.3 5 5 C0.71 5 -3.58 5 -8 5 C-8 10.94 -8 16.88 -8 23 C-8.33 23 -8.66 23 -9 23 C-9 16.73 -9 10.46 -9 4 C-6.03 4 -3.06 4 0 4 C0 2.68 0 1.36 0 0 Z " fill="#383838" transform="translate(113,132)"/>
<path d="M0 0 C4.29 0 8.58 0 13 0 C13 1.32 13 2.64 13 4 C8.71 4 4.42 4 0 4 C0 2.68 0 1.36 0 0 Z " fill="#010101" transform="translate(90,65)"/>
<path d="M0 0 C3.3 0 6.6 0 10 0 C10 1.65 10 3.3 10 5 C6.7 5 3.4 5 0 5 C0 3.35 0 1.7 0 0 Z " fill="#955E39" transform="translate(70,117)"/>
<path d="M0 0 C1.65 0 3.3 0 5 0 C5 3.3 5 6.6 5 10 C3.35 10 1.7 10 0 10 C0 6.7 0 3.4 0 0 Z " fill="#F4BF9A" transform="translate(118,98)"/>
<path d="M0 0 C1.65 0 3.3 0 5 0 C5 3.3 5 6.6 5 10 C3.35 10 1.7 10 0 10 C0 6.7 0 3.4 0 0 Z " fill="#5C5C5C" transform="translate(128,55)"/>
<path d="M0 0 C1.65 0 3.3 0 5 0 C5 3.3 5 6.6 5 10 C3.35 10 1.7 10 0 10 C0 6.7 0 3.4 0 0 Z " fill="#464646" transform="translate(94,45)"/>
<path d="M0 0 C3.3 0 6.6 0 10 0 C10 1.65 10 3.3 10 5 C6.7 5 3.4 5 0 5 C0 3.35 0 1.7 0 0 Z " fill="#464646" transform="translate(70,40)"/>
<path d="M0 0 C0 1.65 0 3.3 0 5 C-4.62 5 -9.24 5 -14 5 C-13.34 4.34 -12.68 3.68 -12 3 C-11.01 3 -10.02 3 -9 3 C-9 2.34 -9 1.68 -9 1 C-3.375 -1.125 -3.375 -1.125 0 0 Z " fill="#6799E5" transform="translate(65,11)"/>
<path d="M0 0 C0.33 0 0.66 0 1 0 C1 9.57 1 19.14 1 29 C0.67 29 0.34 29 0 29 C0 27.35 0 25.7 0 24 C-1.32 24 -2.64 24 -4 24 C-4 22.35 -4 20.7 -4 19 C-2.68 19 -1.36 19 0 19 C0 12.73 0 6.46 0 0 Z " fill="#0D1F38" transform="translate(41,55)"/>
<path d="M0 0 C1.32 0 2.64 0 4 0 C4.0272415 1.41655793 4.04650467 2.83327045 4.0625 4.25 C4.07410156 5.03890625 4.08570313 5.8278125 4.09765625 6.640625 C4.00385306 8.90691002 3.63241063 10.8288895 3 13 C2.01 13 1.02 13 0 13 C0 8.71 0 4.42 0 0 Z " fill="#010101" transform="translate(129,70)"/>
<path d="M0 0 C1.32 0 2.64 0 4 0 C4 4.29 4 8.58 4 13 C2.68 12.34 1.36 11.68 0 11 C0 7.37 0 3.74 0 0 Z " fill="#010101" transform="translate(51,151)"/>
<path d="M0 0 C1.98 0 3.96 0 6 0 C6 1.65 6 3.3 6 5 C4.02 5 2.04 5 0 5 C0 6.32 0 7.64 0 9 C-1.32 9 -2.64 9 -4 9 C-4 7.68 -4 6.36 -4 5 C-3.01 4.67 -2.02 4.34 -1 4 C-0.26676204 1.98491642 -0.26676204 1.98491642 0 0 Z " fill="#0D0B0B" transform="translate(113,50)"/>
<path d="M0 0 C1.65 0 3.3 0 5 0 C5 2.97 5 5.94 5 9 C3.35 9 1.7 9 0 9 C0 6.03 0 3.06 0 0 Z " fill="#5D5D5D" transform="translate(104,156)"/>
<path d="M0 0 C0 1.65 0 3.3 0 5 C-3.3 5 -6.6 5 -10 5 C-10 3.68 -10 2.36 -10 1 C-6.59437148 0.22157062 -3.49234244 -0.09978121 0 0 Z " fill="#FBD2AC" transform="translate(114,64)"/>
<path d="M0 0 C1.65 0 3.3 0 5 0 C4.67 2.97 4.34 5.94 4 9 C2.68 9.33 1.36 9.66 0 10 C0 6.7 0 3.4 0 0 Z " fill="#282828" transform="translate(109,45)"/>
<path d="M0 0 C1.65 0 3.3 0 5 0 C5 2.64 5 5.28 5 8 C3.35 8.33 1.7 8.66 0 9 C0 6.03 0 3.06 0 0 Z " fill="#030303" transform="translate(128,151)"/>
<path d="M0 0 C4.62 0 9.24 0 14 0 C14 0.99 14 1.98 14 3 C9.38 3 4.76 3 0 3 C0 2.01 0 1.02 0 0 Z " fill="#C71010" transform="translate(85,170)"/>
<path d="M0 0 C2.97 0 5.94 0 9 0 C9 1.32 9 2.64 9 4 C4.545 4.495 4.545 4.495 0 5 C0 3.35 0 1.7 0 0 Z " fill="#606061" transform="translate(56,161)"/>
<path d="M0 0 C3.3 0 6.6 0 10 0 C10 1.32 10 2.64 10 4 C6.7 4 3.4 4 0 4 C0 2.68 0 1.36 0 0 Z " fill="#8D5634" transform="translate(104,118)"/>
<path d="M0 0 C3.3 0 6.6 0 10 0 C10 1.32 10 2.64 10 4 C6.7 4 3.4 4 0 4 C0 2.68 0 1.36 0 0 Z " fill="#5F5F5F" transform="translate(75,65)"/>
<path d="M0 0 C1.98 0 3.96 0 6 0 C6 6.6 6 13.2 6 20 C4.68 19.67 3.36 19.34 2 19 C2 17.68 2 16.36 2 15 C2.99 15 3.98 15 5 15 C5 10.38 5 5.76 5 1 C3.35 1 1.7 1 0 1 C0 0.67 0 0.34 0 0 Z " fill="#876A1A" transform="translate(7,93)"/>
<path d="M0 0 C0.33 0 0.66 0 1 0 C1 4.29 1 8.58 1 13 C-0.32 13 -1.64 13 -3 13 C-3.33 13.66 -3.66 14.32 -4 15 C-3.36950736 11.74245471 -2.69343633 8.49466105 -2 5.25 C-1.835 4.47140625 -1.67 3.6928125 -1.5 2.890625 C-1 1 -1 1 0 0 Z " fill="#1A1A27" transform="translate(11,61)"/>
<path d="M0 0 C2.64 0 5.28 0 8 0 C7.67 1.32 7.34 2.64 7 4 C4.69 4.33 2.38 4.66 0 5 C0 3.35 0 1.7 0 0 Z " fill="#606164" transform="translate(119,161)"/>
<path d="M0 0 C1.32 0 2.64 0 4 0 C4 2.97 4 5.94 4 9 C2.68 9 1.36 9 0 9 C0 6.03 0 3.06 0 0 Z " fill="#606060" transform="translate(75,156)"/>
<path d="M0 0 C1.32 0 2.64 0 4 0 C4 2.97 4 5.94 4 9 C2.68 9 1.36 9 0 9 C0 6.03 0 3.06 0 0 Z " fill="#010101" transform="translate(124,142)"/>
<path d="M0 0 C1.32 0 2.64 0 4 0 C4 2.97 4 5.94 4 9 C2.68 9 1.36 9 0 9 C0 6.03 0 3.06 0 0 Z " fill="#010101" transform="translate(56,142)"/>
<path d="M0 0 C1.32 0 2.64 0 4 0 C4 2.97 4 5.94 4 9 C2.68 9 1.36 9 0 9 C0 6.03 0 3.06 0 0 Z " fill="#616161" transform="translate(114,137)"/>
<path d="M0 0 C1.32 0 2.64 0 4 0 C4 2.97 4 5.94 4 9 C2.68 9 1.36 9 0 9 C0 6.03 0 3.06 0 0 Z " fill="#606060" transform="translate(66,137)"/>
<path d="M0 0 C1.32 0 2.64 0 4 0 C4 2.97 4 5.94 4 9 C2.68 9 1.36 9 0 9 C0 6.03 0 3.06 0 0 Z " fill="#000000" transform="translate(119,132)"/>
<path d="M0 0 C1.32 0 2.64 0 4 0 C4 2.97 4 5.94 4 9 C2.68 9 1.36 9 0 9 C0 6.03 0 3.06 0 0 Z " fill="#000001" transform="translate(61,132)"/>
<path d="M0 0 C2.97 0 5.94 0 9 0 C9 1.32 9 2.64 9 4 C6.03 4 3.06 4 0 4 C0 2.68 0 1.36 0 0 Z " fill="#915732" transform="translate(61,113)"/>
<path d="M0 0 C1.32 0 2.64 0 4 0 C4 2.97 4 5.94 4 9 C2.68 9 1.36 9 0 9 C0 6.03 0 3.06 0 0 Z " fill="#F4BA94" transform="translate(61,99)"/>
<path d="M0 0 C2.97 0 5.94 0 9 0 C9 1.32 9 2.64 9 4 C6.03 4 3.06 4 0 4 C0 2.68 0 1.36 0 0 Z " fill="#010101" transform="translate(66,65)"/>
<path d="M0 0 C1.32 0 2.64 0 4 0 C4 2.97 4 5.94 4 9 C2.68 9 1.36 9 0 9 C0 6.03 0 3.06 0 0 Z " fill="#020202" transform="translate(124,60)"/>
<path d="M0 0 C1.32 0 2.64 0 4 0 C4 2.97 4 5.94 4 9 C2.68 9 1.36 9 0 9 C0 6.03 0 3.06 0 0 Z " fill="#434343" transform="translate(85,60)"/>
<path d="M0 0 C2.97 0 5.94 0 9 0 C9 1.32 9 2.64 9 4 C6.03 4 3.06 4 0 4 C0 2.68 0 1.36 0 0 Z " fill="#010101" transform="translate(75,60)"/>
<path d="M0 0 C1.32 0 2.64 0 4 0 C4 2.97 4 5.94 4 9 C2.68 9 1.36 9 0 9 C0 6.03 0 3.06 0 0 Z " fill="#020202" transform="translate(56,55)"/>
<path d="M0 0 C2.97 0 5.94 0 9 0 C9 1.32 9 2.64 9 4 C6.03 4 3.06 4 0 4 C0 2.68 0 1.36 0 0 Z " fill="#454545" transform="translate(75,55)"/>
<path d="M0 0 C1.32 0 2.64 0 4 0 C4 2.97 4 5.94 4 9 C2.68 9 1.36 9 0 9 C0 6.03 0 3.06 0 0 Z " fill="#010101" transform="translate(133,46)"/>
<path d="M0 0 C1.32 0 2.64 0 4 0 C4 2.97 4 5.94 4 9 C2.68 9 1.36 9 0 9 C0 6.03 0 3.06 0 0 Z " fill="#030303" transform="translate(47,46)"/>
<path d="M0 0 C2.97 0 5.94 0 9 0 C9 1.32 9 2.64 9 4 C6.03 4 3.06 4 0 4 C0 2.68 0 1.36 0 0 Z " fill="#71AAF6" transform="translate(133,36)"/>
<path d="M0 0 C2.97 0 5.94 0 9 0 C9 1.32 9 2.64 9 4 C6.03 4 3.06 4 0 4 C0 2.68 0 1.36 0 0 Z " fill="#000102" transform="translate(61,31)"/>
<path d="M0 0 C0.66 0 1.32 0 2 0 C4.22923777 4.32734391 3.92470553 7.28400182 3 12 C2.01 12 1.02 12 0 12 C0 8.04 0 4.08 0 0 Z " fill="#0D0E12" transform="translate(167,103)"/>
<path d="M0 0 C1.65 0 3.3 0 5 0 C5 4.62 5 9.24 5 14 C4.67 14 4.34 14 4 14 C4 11.03 4 8.06 4 5 C2.68 5 1.36 5 0 5 C0 3.35 0 1.7 0 0 Z " fill="#D49B75" transform="translate(133,84)"/>
<path d="M0 0 C2.64 0 5.28 0 8 0 C8 1.32 8 2.64 8 4 C5.36 4 2.72 4 0 4 C0 2.68 0 1.36 0 0 Z " fill="#272727" transform="translate(66,46)"/>
<path d="M0 0 C0.33 0 0.66 0 1 0 C0.95875 0.7425 0.9175 1.485 0.875 2.25 C1.00398134 5.08758952 1.57051222 6.58773938 3 9 C1.68 9 0.36 9 -1 9 C-1 8.34 -1 7.68 -1 7 C-2.65 7 -4.3 7 -6 7 C-5.67 6.01 -5.34 5.02 -5 4 C-3.35 4 -1.7 4 0 4 C0 2.68 0 1.36 0 0 Z " fill="#18191F" transform="translate(65,161)"/>
<path d="M0 0 C0.33 0 0.66 0 1 0 C1 2.97 1 5.94 1 9 C3.97 9 6.94 9 10 9 C10 9.33 10 9.66 10 10 C7.03 10 4.06 10 1 10 C1 12.97 1 15.94 1 19 C0.67 19 0.34 19 0 19 C0 16.03 0 13.06 0 10 C-0.99 9.67 -1.98 9.34 -3 9 C-2.01 9 -1.02 9 0 9 C0 6.03 0 3.06 0 0 Z " fill="#BD9475" transform="translate(60,89)"/>
<path d="M0 0 C2.375 0.3125 2.375 0.3125 5 1 C5.66 1.99 6.32 2.98 7 4 C6.34 4 5.68 4 5 4 C5 4.66 5 5.32 5 6 C3.35 6 1.7 6 0 6 C0 4.02 0 2.04 0 0 Z " fill="#78B0F7" transform="translate(133,20)"/>
<path d="M0 0 C1.65 0 3.3 0 5 0 C5 1.65 5 3.3 5 5 C3.68 5 2.36 5 1 5 C1 6.65 1 8.3 1 10 C0.67 10 0.34 10 0 10 C0 6.7 0 3.4 0 0 Z " fill="#30568D" transform="translate(36,69)"/>
<path d="M0 0 C0.33 0.99 0.66 1.98 1 3 C0 4 0 4 -3.5625 4.0625 C-4.696875 4.041875 -5.83125 4.02125 -7 4 C-7 2.68 -7 1.36 -7 0 C-3.89953913 -1.03348696 -2.94389782 -1.17755913 0 0 Z " fill="#454558" transform="translate(164,51)"/>
<path d="M0 0 C1.32 0 2.64 0 4 0 C4 1.32 4 2.64 4 4 C7.3 4 10.6 4 14 4 C14 4.33 14 4.66 14 5 C9.38 5 4.76 5 0 5 C0 3.35 0 1.7 0 0 Z " fill="#2B2B2B" transform="translate(109,36)"/>
<path d="M0 0 C0.33 0 0.66 0 1 0 C1 3.3 1 6.6 1 10 C-0.65 10 -2.3 10 -4 10 C-4 8.35 -4 6.7 -4 5 C-2.68 5 -1.36 5 0 5 C0 3.35 0 1.7 0 0 Z " fill="#232528" transform="translate(108,26)"/>
<path d="M0 0 C1.65 0 3.3 0 5 0 C5 1.65 5 3.3 5 5 C3.68 5 2.36 5 1 5 C0.67 6.32 0.34 7.64 0 9 C0 6.03 0 3.06 0 0 Z " fill="#3D3D3E" transform="translate(65,132)"/>
<path d="M0 0 C2.97 0 5.94 0 9 0 C7.68 0.33 6.36 0.66 5 1 C5 2.32 5 3.64 5 5 C3.35 5 1.7 5 0 5 C0 3.35 0 1.7 0 0 Z " fill="#9A6440" transform="translate(80,74)"/>
<path d="M0 0 C0.99 0 1.98 0 3 0 C3 2.97 3 5.94 3 9 C2.01 9 1.02 9 0 9 C0 6.03 0 3.06 0 0 Z " fill="#F4BA94" transform="translate(47,89)"/>
<path d="M0 0 C1.65 0 3.3 0 5 0 C5 1.65 5 3.3 5 5 C3.35 5 1.7 5 0 5 C0 3.35 0 1.7 0 0 Z " fill="#404040" transform="translate(123,151)"/>
<path d="M0 0 C1.65 0 3.3 0 5 0 C5 1.65 5 3.3 5 5 C3.35 5 1.7 5 0 5 C0 3.35 0 1.7 0 0 Z " fill="#5A5A5A" transform="translate(60,151)"/>
<path d="M0 0 C1.65 0 3.3 0 5 0 C5 1.65 5 3.3 5 5 C3.35 5 1.7 5 0 5 C0 3.35 0 1.7 0 0 Z " fill="#3C3C3D" transform="translate(75,127)"/>
<path d="M0 0 C1.65 0 3.3 0 5 0 C5 1.65 5 3.3 5 5 C3.35 5 1.7 5 0 5 C0 3.35 0 1.7 0 0 Z " fill="#8C5C40" transform="translate(123,108)"/>
<path d="M0 0 C1.32 0 2.64 0 4 0 C4 1.32 4 2.64 4 4 C5.65 4 7.3 4 9 4 C9 4.33 9 4.66 9 5 C6.03 5 3.06 5 0 5 C0 3.35 0 1.7 0 0 Z " fill="#CF956F" transform="translate(61,108)"/>
<path d="M0 0 C1.65 0 3.3 0 5 0 C5 1.65 5 3.3 5 5 C3.35 5 1.7 5 0 5 C0 3.35 0 1.7 0 0 Z " fill="#885331" transform="translate(133,79)"/>
<path d="M0 0 C1.65 0 3.3 0 5 0 C5 1.65 5 3.3 5 5 C3.35 5 1.7 5 0 5 C0 3.35 0 1.7 0 0 Z " fill="#855230" transform="translate(46,79)"/>
<path d="M0 0 C1.65 0 3.3 0 5 0 C5 1.65 5 3.3 5 5 C3.35 5 1.7 5 0 5 C0 3.35 0 1.7 0 0 Z " fill="#9D633D" transform="translate(99,74)"/>
<path d="M0 0 C1.65 0 3.3 0 5 0 C5 1.65 5 3.3 5 5 C3.35 5 1.7 5 0 5 C0 3.35 0 1.7 0 0 Z " fill="#315A93" transform="translate(27,69)"/>
<path d="M0 0 C1.65 0 3.3 0 5 0 C5 1.65 5 3.3 5 5 C3.35 5 1.7 5 0 5 C0 3.35 0 1.7 0 0 Z " fill="#2F5892" transform="translate(27,60)"/>
<path d="M0 0 C1.65 0 3.3 0 5 0 C5 1.65 5 3.3 5 5 C3.35 5 1.7 5 0 5 C0 3.35 0 1.7 0 0 Z " fill="#305A93" transform="translate(27,50)"/>
<path d="M0 0 C1.65 0 3.3 0 5 0 C5 1.65 5 3.3 5 5 C3.35 5 1.7 5 0 5 C0 3.35 0 1.7 0 0 Z " fill="#365D95" transform="translate(17,50)"/>
<path d="M0 0 C1.65 0 3.3 0 5 0 C5 1.65 5 3.3 5 5 C3.35 5 1.7 5 0 5 C0 3.35 0 1.7 0 0 Z " fill="#75ACF7" transform="translate(142,45)"/>
<path d="M0 0 C1.65 0 3.3 0 5 0 C5 1.65 5 3.3 5 5 C3.35 5 1.7 5 0 5 C0 3.35 0 1.7 0 0 Z " fill="#434343" transform="translate(123,45)"/>
<path d="M0 0 C1.65 0 3.3 0 5 0 C5 1.65 5 3.3 5 5 C3.35 5 1.7 5 0 5 C0 3.35 0 1.7 0 0 Z " fill="#434343" transform="translate(70,31)"/>
<path d="M0 0 C1.65 0 3.3 0 5 0 C5 1.65 5 3.3 5 5 C3.35 5 1.7 5 0 5 C0 3.35 0 1.7 0 0 Z " fill="#73ABF6" transform="translate(128,26)"/>
<path d="M0 0 C1.65 0 3.3 0 5 0 C4.67 1.65 4.34 3.3 4 5 C2.68 5 1.36 5 0 5 C0 3.35 0 1.7 0 0 Z " fill="#434343" transform="translate(85,50)"/>
<path d="M0 0 C2.475 0.99 2.475 0.99 5 2 C5 2.99 5 3.98 5 5 C3.35 5 1.7 5 0 5 C0 3.35 0 1.7 0 0 Z " fill="#437DCA" transform="translate(104,7)"/>
<path d="M0 0 C1.32 0 2.64 0 4 0 C4 1.65 4 3.3 4 5 C2.68 5 1.36 5 0 5 C0 3.35 0 1.7 0 0 Z " fill="#3F3F3F" transform="translate(56,151)"/>
<path d="M0 0 C1.32 0 2.64 0 4 0 C4 1.65 4 3.3 4 5 C2.68 5 1.36 5 0 5 C0 3.35 0 1.7 0 0 Z " fill="#5E5E5E" transform="translate(119,151)"/>
<path d="M0 0 C1.32 0 2.64 0 4 0 C4 1.65 4 3.3 4 5 C2.68 5 1.36 5 0 5 C0 3.35 0 1.7 0 0 Z " fill="#444444" transform="translate(114,132)"/>
<path d="M0 0 C1.32 0 2.64 0 4 0 C4 1.65 4 3.3 4 5 C2.68 5 1.36 5 0 5 C0 3.35 0 1.7 0 0 Z " fill="#3F3F3F" transform="translate(104,127)"/>
<path d="M0 0 C1.65 0 3.3 0 5 0 C5 1.32 5 2.64 5 4 C3.35 4 1.7 4 0 4 C0 2.68 0 1.36 0 0 Z " fill="#D39A74" transform="translate(99,118)"/>
<path d="M0 0 C1.65 0 3.3 0 5 0 C5 1.32 5 2.64 5 4 C3.35 4 1.7 4 0 4 C0 2.68 0 1.36 0 0 Z " fill="#D79D77" transform="translate(80,118)"/>
<path d="M0 0 C1.65 0 3.3 0 5 0 C5 1.32 5 2.64 5 4 C3.35 4 1.7 4 0 4 C0 2.68 0 1.36 0 0 Z " fill="#965E39" transform="translate(56,108)"/>
<path d="M0 0 C1.65 0 3.3 0 5 0 C5 1.32 5 2.64 5 4 C3.35 4 1.7 4 0 4 C0 2.68 0 1.36 0 0 Z " fill="#F2B993" transform="translate(65,108)"/>
<path d="M0 0 C1.32 0 2.64 0 4 0 C4 1.65 4 3.3 4 5 C2.68 5 1.36 5 0 5 C0 3.35 0 1.7 0 0 Z " fill="#0E366E" transform="translate(143,93)"/>
<path d="M0 0 C1.65 0 3.3 0 5 0 C5 1.32 5 2.64 5 4 C3.35 4 1.7 4 0 4 C0 2.68 0 1.36 0 0 Z " fill="#BB8D0F" transform="translate(7,94)"/>
<path d="M0 0 C1.32 0 2.64 0 4 0 C4 1.65 4 3.3 4 5 C2.68 5 1.36 5 0 5 C0 3.35 0 1.7 0 0 Z " fill="#0D356D" transform="translate(143,84)"/>
<path d="M0 0 C1.32 0 2.64 0 4 0 C4 1.65 4 3.3 4 5 C2.68 5 1.36 5 0 5 C0 3.35 0 1.7 0 0 Z " fill="#345F99" transform="translate(143,79)"/>
<path d="M0 0 C1.32 0 2.64 0 4 0 C4 1.65 4 3.3 4 5 C2.68 5 1.36 5 0 5 C0 3.35 0 1.7 0 0 Z " fill="#335C96" transform="translate(37,79)"/>
<path d="M0 0 C1.32 0 2.64 0 4 0 C4 1.65 4 3.3 4 5 C2.68 5 1.36 5 0 5 C0 3.35 0 1.7 0 0 Z " fill="#985E38" transform="translate(119,74)"/>
<path d="M0 0 C1.32 0 2.64 0 4 0 C4 1.65 4 3.3 4 5 C2.68 5 1.36 5 0 5 C0 3.35 0 1.7 0 0 Z " fill="#120C09" transform="translate(71,74)"/>
<path d="M0 0 C1.32 0 2.64 0 4 0 C4 1.65 4 3.3 4 5 C2.68 5 1.36 5 0 5 C0 3.35 0 1.7 0 0 Z " fill="#4E8ADE" transform="translate(143,74)"/>
<path d="M0 0 C1.32 0 2.64 0 4 0 C4 1.65 4 3.3 4 5 C2.68 5 1.36 5 0 5 C0 3.35 0 1.7 0 0 Z " fill="#8D5531" transform="translate(61,74)"/>
<path d="M0 0 C1.32 0 2.64 0 4 0 C4 1.65 4 3.3 4 5 C2.68 5 1.36 5 0 5 C0 3.35 0 1.7 0 0 Z " fill="#0C346B" transform="translate(37,74)"/>
<path d="M0 0 C1.32 0 2.64 0 4 0 C4 1.65 4 3.3 4 5 C2.68 5 1.36 5 0 5 C0 3.35 0 1.7 0 0 Z " fill="#72AAF5" transform="translate(143,69)"/>
<path d="M0 0 C1.65 0 3.3 0 5 0 C5 1.32 5 2.64 5 4 C3.35 4 1.7 4 0 4 C0 2.68 0 1.36 0 0 Z " fill="#FDD6B0" transform="translate(94,70)"/>
<path d="M0 0 C1.65 0 3.3 0 5 0 C5 1.32 5 2.64 5 4 C3.35 4 1.7 4 0 4 C0 2.68 0 1.36 0 0 Z " fill="#404040" transform="translate(128,65)"/>
<path d="M0 0 C1.65 0 3.3 0 5 0 C5 1.32 5 2.64 5 4 C3.35 4 1.7 4 0 4 C0 2.68 0 1.36 0 0 Z " fill="#F0B893" transform="translate(104,65)"/>
<path d="M0 0 C1.65 0 3.3 0 5 0 C5 1.32 5 2.64 5 4 C3.35 4 1.7 4 0 4 C0 2.68 0 1.36 0 0 Z " fill="#434343" transform="translate(75,65)"/>
<path d="M0 0 C1.32 0 2.64 0 4 0 C4 1.65 4 3.3 4 5 C2.68 5 1.36 5 0 5 C0 3.35 0 1.7 0 0 Z " fill="#5D5D5D" transform="translate(61,64)"/>
<path d="M0 0 C1.65 0 3.3 0 5 0 C5 1.32 5 2.64 5 4 C3.35 4 1.7 4 0 4 C0 2.68 0 1.36 0 0 Z " fill="#444444" transform="translate(70,60)"/>
<path d="M0 0 C1.65 0 3.3 0 5 0 C5 1.32 5 2.64 5 4 C3.35 4 1.7 4 0 4 C0 2.68 0 1.36 0 0 Z " fill="#396097" transform="translate(17,60)"/>
<path d="M0 0 C1.32 0 2.64 0 4 0 C4 1.65 4 3.3 4 5 C2.68 5 1.36 5 0 5 C0 3.35 0 1.7 0 0 Z " fill="#454545" transform="translate(90,55)"/>
<path d="M0 0 C1.32 0 2.64 0 4 0 C4 1.65 4 3.3 4 5 C2.68 5 1.36 5 0 5 C0 3.35 0 1.7 0 0 Z " fill="#444444" transform="translate(128,50)"/>
<path d="M0 0 C1.32 0 2.64 0 4 0 C4 1.65 4 3.3 4 5 C2.68 5 1.36 5 0 5 C0 3.35 0 1.7 0 0 Z " fill="#444444" transform="translate(66,50)"/>
<path d="M0 0 C1.32 0 2.64 0 4 0 C4 1.65 4 3.3 4 5 C2.68 5 1.36 5 0 5 C0 3.35 0 1.7 0 0 Z " fill="#060606" transform="translate(61,50)"/>
<path d="M0 0 C1.32 0 2.64 0 4 0 C4 1.65 4 3.3 4 5 C2.68 5 1.36 5 0 5 C0 3.35 0 1.7 0 0 Z " fill="#325C96" transform="translate(37,50)"/>
<path d="M0 0 C1.32 0 2.64 0 4 0 C4 1.65 4 3.3 4 5 C2.68 5 1.36 5 0 5 C0 3.35 0 1.7 0 0 Z " fill="#434343" transform="translate(119,50)"/>
<path d="M0 0 C1.65 0 3.3 0 5 0 C5 1.32 5 2.64 5 4 C3.35 4 1.7 4 0 4 C0 2.68 0 1.36 0 0 Z " fill="#464646" transform="translate(109,41)"/>
<path d="M0 0 C1.65 0 3.3 0 5 0 C5 1.32 5 2.64 5 4 C3.35 4 1.7 4 0 4 C0 2.68 0 1.36 0 0 Z " fill="#282828" transform="translate(75,41)"/>
<path d="M0 0 C1.65 0 3.3 0 5 0 C5 1.32 5 2.64 5 4 C3.35 4 1.7 4 0 4 C0 2.68 0 1.36 0 0 Z " fill="#454546" transform="translate(56,41)"/>
<path d="M0 0 C1.32 0 2.64 0 4 0 C4 1.65 4 3.3 4 5 C2.68 5 1.36 5 0 5 C0 3.35 0 1.7 0 0 Z " fill="#325A91" transform="translate(109,26)"/>
<path d="M0 0 C1.32 0 2.64 0 4 0 C4 1.65 4 3.3 4 5 C2.68 5 1.36 5 0 5 C0 3.35 0 1.7 0 0 Z " fill="#4B86D8" transform="translate(119,16)"/>
<path d="M0 0 C1.65 0 3.3 0 5 0 C4.67 1.32 4.34 2.64 4 4 C2.68 4.33 1.36 4.66 0 5 C0 3.35 0 1.7 0 0 Z " fill="#454545" transform="translate(99,55)"/>
<path d="M0 0 C-1.32 0.33 -2.64 0.66 -4 1 C-4 1.66 -4 2.32 -4 3 C-5.32 3 -6.64 3 -8 3 C-8 2.01 -8 1.02 -8 0 C-5.13822943 -1.43088528 -3.06624227 -0.59991697 0 0 Z " fill="#19191E" transform="translate(119,167)"/>
<path d="M0 0 C0.66 0 1.32 0 2 0 C2.66 1.65 3.32 3.3 4 5 C3.01 5 2.02 5 1 5 C0.67 5.99 0.34 6.98 0 8 C0 5.36 0 2.72 0 0 Z " fill="#020202" transform="translate(167,103)"/>
<path d="M0 0 C1.65 0 3.3 0 5 0 C4.67 1.32 4.34 2.64 4 4 C2.68 4 1.36 4 0 4 C0 2.68 0 1.36 0 0 Z " fill="#454545" transform="translate(104,50)"/>
</svg>
